<?xml version="1.0" encoding="utf-8"?>
<!-- Generator: Adobe Illustrator 28.1.0, SVG Export Plug-In . SVG Version: 6.00 Build 0)  -->
<svg version="1.1" id="Layer_1" xmlns="http://www.w3.org/2000/svg" xmlns:xlink="http://www.w3.org/1999/xlink" x="0px" y="0px"
	 viewBox="0 0 3446.12 3393.04" style="enable-background:new 0 0 3446.12 3393.04;" xml:space="preserve">
<style type="text/css">
	.st0{fill:#FFFFFF;}
	.st1{clip-path:url(#SVGID_00000014591942244591608220000005467540539057623230_);}
	.st2{fill:#F7A61B;}
	.st3{fill:#2F358F;}
	.st4{fill:#4C53A4;}
	.st5{fill:#30368F;}
	.st6{opacity:0.22;fill:#FFFFFF;}
	.st7{clip-path:url(#SVGID_00000118383358955697155460000015092281381485266871_);}
	.st8{fill:#AAAFD1;}
	.st9{clip-path:url(#SVGID_00000066503411540065329560000003687260882138350721_);}
	.st10{clip-path:url(#SVGID_00000096028482528688294520000007385223628440789177_);fill:#FFFFFF;}
	.st11{clip-path:url(#SVGID_00000175306946894397847350000017315025283738575749_);}
	.st12{fill:none;}
	.st13{fill:#262626;}
	.st14{clip-path:url(#SVGID_00000109749450164733072900000013546736407196103354_);}
</style>
<g>
	<g>
		<path class="st0" d="M2797.75-4155.3v1065.34c0,170.56-138.27,308.83-308.83,308.83H1423.58
			c-170.56,0-308.83-138.27-308.83-308.83V-4155.3c0-170.56,138.27-308.83,308.83-308.83h1065.34c65,0,125.31,20.08,175.06,54.38
			c1.69,1.16,3.37,2.34,5.03,3.55C2746.97-4350.16,2797.75-4258.66,2797.75-4155.3z"/>
		<g>
			<defs>
				<path id="SVGID_1_" d="M2488.92-2781.13H1423.58c-170.56,0-308.83-138.27-308.83-308.83V-4155.3
					c0-170.56,138.27-308.83,308.83-308.83h1065.34c170.56,0,308.83,138.27,308.83,308.83v1065.34
					C2797.75-2919.4,2659.48-2781.13,2488.92-2781.13z"/>
			</defs>
			<clipPath id="SVGID_00000131349224279460761180000018328236936097784210_">
				<use xlink:href="#SVGID_1_"  style="overflow:visible;"/>
			</clipPath>
			<g style="clip-path:url(#SVGID_00000131349224279460761180000018328236936097784210_);">
				<g>
					<polygon class="st2" points="2042,-3590.64 2654.67,-6455.16 2333.55,-6541.21 2260.73,-6526.3 2220.01,-6502.8 					"/>
				</g>
				<g>
					<polygon class="st2" points="2042,-3590.64 3375.18,-6198.99 3087.28,-6365.21 3013.08,-6369.66 2967.67,-6357.49 					"/>
				</g>
				<g>
					<polygon class="st2" points="2042,-3590.64 4004.84,-5765.06 3769.77,-6000.13 3699.25,-6023.63 3652.24,-6023.63 					"/>
				</g>
				<g>
					<polygon class="st2" points="2042,-3590.64 4500.74,-5182.94 4334.52,-5470.84 4272.49,-5511.8 4227.07,-5523.97 					"/>
				</g>
				<g>
					<polygon class="st2" points="2042,-3590.64 4829.08,-4492.32 4743.04,-4813.43 4693.72,-4869.05 4653,-4892.56 					"/>
				</g>
				<g>
					<polygon class="st2" points="2042,-3590.64 4967.48,-3740.24 4967.48,-4072.68 4934.24,-4139.17 4900.99,-4172.42 					"/>
				</g>
				<g>
					<polygon class="st2" points="2042,-3590.64 4906.52,-2977.97 4992.56,-3299.09 4977.66,-3371.92 4954.15,-3412.63 					"/>
				</g>
				<g>
					<polygon class="st2" points="2042,-3590.64 4650.34,-2257.46 4816.56,-2545.36 4821.01,-2619.56 4808.85,-2664.98 					"/>
				</g>
				<g>
					<polygon class="st2" points="2042,-3590.64 4216.41,-1627.8 4451.48,-1862.87 4474.99,-1933.39 4474.99,-1980.4 					"/>
				</g>
				<g>
					<polygon class="st2" points="2042,-3590.64 3634.29,-1131.9 3922.2,-1298.12 3963.16,-1360.16 3975.32,-1405.57 					"/>
				</g>
				<g>
					<polygon class="st2" points="2042,-3590.64 2943.67,-803.56 3264.78,-889.61 3320.4,-938.93 3343.91,-979.64 					"/>
				</g>
				<g>
					<polygon class="st2" points="2042,-3590.64 2191.6,-665.16 2524.04,-665.16 2590.53,-698.41 2623.77,-731.65 					"/>
				</g>
				<g>
					<polygon class="st2" points="2042,-3590.64 1429.33,-726.13 1750.44,-640.08 1823.27,-654.99 1863.98,-678.49 					"/>
				</g>
				<g>
					<polygon class="st2" points="2042,-3590.64 708.81,-982.3 996.71,-816.08 1070.92,-811.63 1116.33,-823.8 					"/>
				</g>
				<g>
					<polygon class="st2" points="2042,-3590.64 79.15,-1416.23 314.22,-1181.16 384.74,-1157.65 431.76,-1157.65 					"/>
				</g>
				<g>
					<polygon class="st2" points="2042,-3590.64 -416.75,-1998.35 -250.53,-1710.44 -188.49,-1669.49 -143.08,-1657.32 					"/>
				</g>
				<g>
					<polygon class="st2" points="2042,-3590.64 -745.08,-2688.97 -659.04,-2367.86 -609.72,-2312.24 -569.01,-2288.73 					"/>
				</g>
				<g>
					<polygon class="st2" points="2042,-3590.64 -883.49,-3441.05 -883.49,-3108.6 -850.24,-3042.12 -817,-3008.87 					"/>
				</g>
				<g>
					<polygon class="st2" points="2042,-3590.64 -822.52,-4203.31 -908.56,-3882.2 -893.66,-3809.37 -870.15,-3768.66 					"/>
				</g>
				<g>
					<polygon class="st2" points="2042,-3590.64 -566.35,-4923.83 -732.57,-4635.93 -737.02,-4561.72 -724.85,-4516.31 					"/>
				</g>
				<g>
					<polygon class="st2" points="2042,-3590.64 -132.41,-5553.49 -367.49,-5318.42 -390.99,-5247.9 -390.99,-5200.88 					"/>
				</g>
				<g>
					<polygon class="st2" points="2042,-3590.64 449.7,-6049.39 161.8,-5883.17 120.84,-5821.13 108.67,-5775.72 					"/>
				</g>
				<g>
					<polygon class="st2" points="2042,-3590.64 1140.33,-6377.73 819.21,-6291.68 763.59,-6242.36 740.09,-6201.65 					"/>
				</g>
				<g>
					<polygon class="st2" points="2042,-3590.64 1892.4,-6516.13 1559.96,-6516.13 1493.47,-6482.88 1460.22,-6449.64 					"/>
				</g>
			</g>
		</g>
		<g>
			<path class="st3" d="M2663.98-4409.75c-517.26,282.6-666.98,863.87-666.98,863.87s-285.14,151.48-305.71,764.75h387.85
				c13.75-109.22,155.7-1157.87,589.87-1625.07L2663.98-4409.75z"/>
			
				<ellipse transform="matrix(0.9934 -0.1146 0.1146 0.9934 447.4397 188.8459)" class="st3" cx="1866.5" cy="-3797.88" rx="150.62" ry="290.83"/>
		</g>
		<g>
			<g>
				<path class="st4" d="M2816-4598.88c-0.01,0.01-0.01,0.01-0.01,0.02c-0.01,0.01-0.02,0.02-0.03,0.04
					c-31.62,31.69-66.29,134.18-89.62,213.74c-0.01,0.06-0.03,0.12-0.05,0.18c-8.83,29.12-17.74,61.51-26.4,97.38
					c-0.09,0.38-0.18,0.73-0.26,1.05c-0.41,1.69-0.63,2.59-0.63,2.59c-29.97-31.55-69.4-54.84-153-81l81-162l-225-126L2816-4598.88z
					"/>
				<path class="st5" d="M3275-4364.88l-270-45l-27,180c0,0-144-63-279-54c0,0,0.22-0.9,0.63-2.59c0.08-0.32,0.17-0.67,0.26-1.05
					c2.91-11.76,12.68-50.58,26.4-97.38c0.02-0.06,0.04-0.12,0.05-0.18c23.33-79.56,58-182.05,89.62-213.74
					c0.01-0.02,0.02-0.03,0.03-0.04c0-0.01,0-0.01,0.01-0.02L3275-4364.88z"/>
			</g>
			<g>
				<g>
					<polygon class="st3" points="3002.51,-3971.23 3086,-4418.88 2978.89,-3984.32 					"/>
				</g>
				<g>
					<polygon class="st3" points="2942,-3986.88 3086,-4418.88 2969,-3986.88 					"/>
				</g>
			</g>
		</g>
	</g>
	<g>
		<g>
			<path class="st6" d="M-589.73-3367.59c0,1.47-0.08,2.92-0.25,4.34v-8.68C-589.81-3370.51-589.73-3369.06-589.73-3367.59z"/>
			<path class="st2" d="M970.53-3728.81c-599.64-375.33-783.64,735.77-1309.79,717.7v0.83
				c599.64,375.33,783.64-735.77,1309.79-717.7V-3728.81z"/>
			<path class="st2" d="M-3629.81-3098.29c379.12-34.05,394.78-749.69,864-523.92v-0.83c-350.47-50.87-458.77,847.91-864,523.91
				V-3098.29z"/>
			<path class="st3" d="M-32.62-3824.16v406.78c0,90.04-72.99,163.02-163.02,163.02h-1025.29c-35.52,0-64.31-28.79-64.31-64.31
				v-957.1c0-34.9,28.29-63.18,63.18-63.18h113.9c34.89,0,63.18,28.28,63.18,63.18v908.18c2.64,53.22,65.85,35.22,100.49,38.17
				c21.08,0,38.17-17.09,38.17-38.17v-456.1c0-34.89,28.28-63.18,63.18-63.18h113.89c34.9,0,63.18,28.29,63.18,63.18v456.1
				c0.45,47.42,70.34,51.4,76.09,4.34c0.52-13.64-0.38-447.91,0-460.45c0-34.88,28.28-63.17,63.18-63.17h113.89
				c34.9,0,63.18,28.29,63.18,63.18v456.48c0,20.87,17.21,37.79,38.43,37.79s38.42-16.92,38.42-37.79v-456.95
				c0-34.89,28.29-63.18,63.18-63.18h113.9C-60.91-3887.34-32.62-3859.05-32.62-3824.16z"/>
			<path class="st3" d="M-2007.76-3984.06h-98.53c-26.94,0-48.78-21.84-48.78-48.78v-98.53c0-26.94,21.84-48.78,48.78-48.78h98.53
				c26.94,0,48.78,21.84,48.78,48.78v98.53C-1958.98-4005.9-1980.82-3984.06-2007.76-3984.06z"/>
			<path class="st3" d="M-1787.16-3984.06h-98.53c-26.94,0-48.78-21.84-48.78-48.78v-98.53c0-26.94,21.84-48.78,48.78-48.78h98.53
				c26.94,0,48.78,21.84,48.78,48.78v98.53C-1738.38-4005.9-1760.22-3984.06-1787.16-3984.06z"/>
			<path class="st3" d="M-3476.01-2512.74h-98.53c-26.94,0-48.78-21.84-48.78-48.78v-98.53c0-26.94,21.84-48.78,48.78-48.78h98.53
				c26.94,0,48.78,21.84,48.78,48.78v98.53C-3427.23-2534.58-3449.07-2512.74-3476.01-2512.74z"/>
			<path class="st3" d="M-3255.41-2512.74h-98.53c-26.94,0-48.78-21.84-48.78-48.78v-98.53c0-26.94,21.84-48.78,48.78-48.78h98.53
				c26.94,0,48.78,21.84,48.78,48.78v98.53C-3206.64-2534.58-3228.48-2512.74-3255.41-2512.74z"/>
			<path class="st3" d="M-1365.75-4275.77v872.02c0,82.51-66.88,149.39-149.39,149.39h-958.29c-32.31,0-58.51-26.19-58.51-58.51
				v-196.99c-208.28,73.65-394.99,571.18-647.88,697.73c-554.47,193.35-766.04-301.12-578.67-634.23
				c-63.6,266.05,58.98,540.26,257.36,540.26c336.55,68.92,545.44-640.88,863.06-738.39c93.21-12.24,340.75-29.77,340.09,93.45
				c0,0,0,183.45,0,183.45c0,21.08,17.09,38.17,38.17,38.17h152.1c21.09,0,38.17-17.09,38.17-38.17v-456.39
				c0-34.9,28.29-63.19,63.19-63.19h113.89c34.89,0,63.18,28.29,63.18,63.19v456.39c0,21.08,17.09,38.17,38.17,38.17h146.94
				c21.08,0,38.17-17.09,38.17-38.17v-908.18c0-34.9,28.28-63.18,63.18-63.18h113.89
				C-1394.04-4338.95-1365.75-4310.67-1365.75-4275.77z"/>
		</g>
		<g>
			<path class="st3" d="M-2587.43-2790.58c-58.72,0-90.67-23.69-95.87-71.06h-7.97c-10.52,0-17.37,3.46-20.56,10.38
				c-3.19,6.92-3.43,18.97-0.71,36.16l18.79,119.75h-46.08l-18.43-116.17c-4.25-27.33-1.12-48.57,9.39-63.73
				c11.58-16.35,31.31-24.52,59.19-24.52h8.68c4.37-20.17,14.12-36.28,29.24-48.33c16.3-13.01,36.92-19.51,61.85-19.51
				c54.7,0,82.05,28.1,82.05,84.31v92.72H-2587.43z M-2554.29-2877.4c0-34.73-13-52.09-38.99-52.09c-13.35,0-23.92,4.65-31.72,13.96
				c-7.56,9.07-11.34,20.88-11.34,35.44c0,34.25,18.13,51.37,54.41,51.37h27.65V-2877.4z"/>
			<path class="st3" d="M-2464.26-2703.05l3.01-39.56c18.9,4.18,37.75,6.26,56.53,6.26c41.94,0,62.91-16.23,62.91-48.69v-5.55
				h-28.35c-64.86,0-97.29-28.34-97.29-85.03c0-26.01,7.68-47.37,23.04-64.08c17.25-18.62,41.65-27.92,73.19-27.92
				c28.47,0,53.75,4.24,75.85,12.71v126.2h35.44v38.13h-35.44v0.72c0,27.21-8.8,48.81-26.4,64.8
				c-19.61,17.9-48.68,26.85-87.19,26.85C-2427.17-2698.21-2445.6-2699.83-2464.26-2703.05z M-2341.81-2922.87
				c-9.21-4.41-20.73-6.62-34.56-6.62c-13.35,0-23.92,4.65-31.72,13.96c-7.68,9.07-11.52,20.88-11.52,35.44
				c0,34.25,18.19,51.37,54.58,51.37h23.21V-2922.87z"/>
			<path class="st3" d="M-2265.25-2828.71h45.01v-220.35h47.85v220.35h36.33v38.13h-129.19V-2828.71z"/>
			<path class="st3" d="M-2141.56-2828.71h12.76c33.43,0,61.61-3.76,84.53-11.28c-32.25-30.55-57.66-48.39-76.2-53.52l3.9-34.55
				c37.21-27.09,72.18-40.63,104.91-40.63c25.52,0,45.07,6.03,58.66,18.08c11.93,10.74,17.9,24.76,17.9,42.07
				c0,26.02-12.35,49.47-37.04,70.35c13,6.33,26.46,9.49,40.41,9.49h23.92v38.13h-29.42c-27.29,0-52.22-7.58-74.78-22.73
				c-33.55,15.16-73.49,22.73-119.8,22.73h-9.75V-2828.71z M-2005.1-2860.57c15-11.93,22.51-25.89,22.51-41.89
				c0-9.07-2.83-16.35-8.51-21.84c-6.14-5.97-14.83-8.95-26.05-8.95c-15,0-33.38,7.34-55.11,22.02
				C-2062.81-2907.41-2040.43-2890.52-2005.1-2860.57z"/>
			<path class="st3" d="M-1913.3-2828.71h45.01v-220.35h47.85v258.48h-92.86V-2828.71z"/>
			<path class="st3" d="M-1758.77-3049.06h47.85v258.48h-47.85V-3049.06z"/>
			<path class="st3" d="M-1663.25-2703.05l3.01-39.56c18.9,4.18,37.75,6.26,56.53,6.26c41.94,0,62.91-16.23,62.91-48.69v-5.55
				h-28.35c-64.86,0-97.29-28.34-97.29-85.03c0-26.01,7.68-47.37,23.04-64.08c17.25-18.62,41.65-27.92,73.19-27.92
				c28.47,0,53.75,4.24,75.85,12.71v165.04c0,27.21-8.8,48.81-26.41,64.8c-19.61,17.9-48.68,26.85-87.19,26.85
				C-1626.16-2698.21-1644.59-2699.83-1663.25-2703.05z M-1540.8-2922.87c-9.22-4.41-20.73-6.62-34.56-6.62
				c-13.35,0-23.92,4.65-31.72,13.96c-7.68,9.07-11.52,20.88-11.52,35.44c0,34.25,18.19,51.37,54.58,51.37h23.22V-2922.87z"/>
			<path class="st3" d="M-1245.21-2790.58c-47.38,0-81.93-9.72-103.67-29.18c-19.73-17.54-29.59-43.97-29.59-79.3
				c0-21,3.13-40.21,9.39-57.64l51.22-8.41c-8.27,18.26-12.41,38.43-12.41,60.5c0,26.61,6.56,45.71,19.67,57.28
				c13.82,12.41,37.27,18.62,70.35,18.62h49.44v-134.25h47.85v172.38H-1245.21z M-1297.84-2998.05c-4.61-4.77-6.91-10.62-6.91-17.54
				c0-6.92,2.3-12.83,6.91-17.72c4.61-4.89,10.28-7.34,17.01-7.34c6.85,0,12.64,2.45,17.37,7.34c4.61,4.77,6.91,10.68,6.91,17.72
				c0,6.8-2.3,12.65-6.91,17.54c-4.73,4.89-10.52,7.34-17.37,7.34C-1287.56-2990.71-1293.23-2993.15-1297.84-2998.05z
				 M-1237.59-2998.05c-4.61-4.77-6.91-10.62-6.91-17.54c0-6.92,2.3-12.83,6.91-17.72c4.61-4.89,10.28-7.34,17.01-7.34
				c6.73,0,12.41,2.45,17.01,7.34c4.61,4.77,6.91,10.68,6.91,17.72c0,6.8-2.3,12.65-6.91,17.54c-4.73,4.89-10.4,7.34-17.01,7.34
				C-1227.31-2990.71-1232.98-2993.15-1237.59-2998.05z"/>
			<path class="st3" d="M-1085.18-3049.06h47.85v220.35h36.33v38.13h-84.18V-3049.06z"/>
			<path class="st3" d="M-1006.5-2828.71h12.76c33.43,0,61.61-3.76,84.53-11.28c-32.25-30.55-57.66-48.39-76.2-53.52l3.9-34.55
				c37.21-27.09,72.18-40.63,104.91-40.63c25.52,0,45.07,6.03,58.66,18.08c11.93,10.74,17.9,24.76,17.9,42.07
				c0,26.02-12.35,49.47-37.04,70.35c13,6.33,26.46,9.49,40.41,9.49h23.92v38.13h-29.42c-27.29,0-52.22-7.58-74.78-22.73
				c-33.55,15.16-73.49,22.73-119.8,22.73h-9.75V-2828.71z M-870.04-2860.57c15-11.93,22.51-25.89,22.51-41.89
				c0-9.07-2.83-16.35-8.51-21.84c-6.14-5.97-14.83-8.95-26.05-8.95c-15,0-33.38,7.34-55.11,22.02
				C-927.76-2907.41-905.37-2890.52-870.04-2860.57z M-899.99-3003.24c-4.96-4.89-7.44-10.86-7.44-17.9c0-7.04,2.48-13.01,7.44-17.9
				c4.84-5.01,10.69-7.52,17.54-7.52c6.97,0,12.88,2.51,17.72,7.52c4.96,4.89,7.44,10.86,7.44,17.9c0,6.92-2.48,12.89-7.44,17.9
				c-4.85,4.89-10.75,7.34-17.72,7.34C-889.3-2995.9-895.15-2998.34-899.99-3003.24z"/>
			<path class="st3" d="M-778.25-2828.71h45.01v-220.35h47.85v220.35h36.33v38.13h-129.19V-2828.71z"/>
			<path class="st3" d="M-654.55-2828.71h45.01v-220.35h47.85v258.48h-92.86V-2828.71z"/>
		</g>
		<g>
			<path class="st3" d="M-658.01-4045.56c-78.09,0-117.14-32.46-117.14-97.38c0-29.79,9.24-54.26,27.74-73.39
				c20.77-21.32,50.14-31.98,88.12-31.98c34.28,0,64.72,4.85,91.32,14.56v144.53h42.67v43.67H-658.01z M-721.81-4283.17
				c-5.55-5.46-8.32-12.16-8.32-20.09c0-7.92,2.77-14.69,8.32-20.3c5.69-5.6,12.51-8.41,20.48-8.41c8.25,0,15.22,2.8,20.91,8.41
				c5.55,5.47,8.32,12.23,8.32,20.3c0,7.79-2.77,14.49-8.32,20.09c-5.69,5.61-12.66,8.41-20.91,8.41
				C-709.43-4274.76-716.26-4277.56-721.81-4283.17z M-623.87-4197.06c-11.1-5.06-24.96-7.59-41.61-7.59
				c-16.08,0-28.8,5.33-38.19,15.99c-9.25,10.39-13.87,23.92-13.87,40.59c0,39.23,21.9,58.84,65.72,58.84h27.95V-4197.06z
				 M-649.26-4283.17c-5.55-5.46-8.32-12.16-8.32-20.09c0-7.92,2.77-14.69,8.32-20.3c5.69-5.6,12.51-8.41,20.48-8.41
				c8.11,0,14.94,2.8,20.48,8.41c5.55,5.47,8.32,12.23,8.32,20.3c0,7.79-2.77,14.49-8.32,20.09c-5.55,5.61-12.38,8.41-20.48,8.41
				C-636.89-4274.76-643.72-4277.56-649.26-4283.17z"/>
			<path class="st3" d="M-531.7-4089.23h66.78c-22.62-12.85-33.93-33.69-33.93-62.53c0-27.74,9.39-50.36,28.17-67.86
				c20.62-19.13,49.36-28.7,86.2-28.7c19.49,0,37.55,2.67,54.2,8l-10.03,44.08c-13.37-5.88-28.52-8.82-45.45-8.82
				c-16.5,0-29.8,4.85-39.9,14.56c-10.1,9.71-15.15,22.62-15.15,38.75c0,18.86,7.89,33.76,23.68,44.69
				c17.21,11.89,42.39,17.84,75.53,17.84h34.14v43.67H-531.7V-4089.23z"/>
			<path class="st3" d="M-264.56-3945.31l3.63-45.31c22.76,4.78,45.45,7.18,68.06,7.18c50.5,0,75.75-18.59,75.75-55.76v-6.36h-34.14
				c-78.09,0-117.14-32.46-117.14-97.38c0-29.79,9.24-54.26,27.74-73.39c20.77-21.32,50.14-31.98,88.12-31.98
				c34.28,0,64.72,4.85,91.32,14.56v144.53h42.67v43.67h-42.67v0.82c0,31.16-10.6,55.9-31.79,74.21
				c-23.61,20.5-58.61,30.75-104.98,30.75C-219.9-3939.77-242.09-3941.62-264.56-3945.31z M-117.13-4197.06
				c-11.1-5.06-24.96-7.59-41.61-7.59c-16.08,0-28.8,5.33-38.19,15.99c-9.25,10.39-13.87,23.92-13.87,40.59
				c0,39.23,21.9,58.84,65.72,58.84h27.95V-4197.06z"/>
			<path class="st3" d="M140.41-4045.56c-47.08,0-79.73-10.93-97.94-32.8c-8.82,21.87-31.93,32.8-69.34,32.8h-6.62v-43.67
				c17.07,0,29.66-4.03,37.77-12.1c8.96-8.88,13.44-23.92,13.44-45.1c0-28.43,9.39-52.07,28.16-70.93
				c20.77-20.64,49.21-30.96,85.35-30.96c65.86,0,98.79,32.19,98.79,96.56v62.53h36.7v43.67H140.41z M173.69-4144.99
				c0-39.77-15.58-59.66-46.73-59.66c-16.08,0-28.88,5.33-38.41,15.99c-9.11,10.39-13.66,23.92-13.66,40.59
				c0,39.23,21.83,58.84,65.5,58.84h33.29V-4144.99z"/>
			<path class="st3" d="M259.89-4089.23h169.2c1.42-11.21,2.13-21.87,2.13-31.98c0-27.33-6.4-47.42-19.2-60.27
				c-13.66-13.53-35.85-20.3-66.57-20.3c-16.22,0-32.93,1.16-50.14,3.48v-43.26c20.48-2.59,39.12-3.9,55.9-3.9
				c48.22,0,83.35,10.32,105.4,30.96c21.19,19.68,31.79,50.09,31.79,91.23c0,11.89-0.57,23.24-1.71,34.03h34.14v43.67H259.89
				V-4089.23z M342.25-3961.92c-5.97-5.61-8.96-12.51-8.96-20.71c0-7.93,2.99-14.76,8.96-20.5c5.83-5.61,12.87-8.41,21.12-8.41
				c8.39,0,15.5,2.8,21.34,8.41c5.97,5.6,8.96,12.44,8.96,20.5c0,8.06-2.99,14.9-8.96,20.5c-5.83,5.74-12.95,8.61-21.34,8.61
				C355.13-3953.51,348.08-3956.31,342.25-3961.92z"/>
			<path class="st3" d="M514.01-4045.56v-43.67h24.96c10.1,0,18.21,0.96,24.32,2.87c-16.22-11.34-24.32-31.37-24.32-60.07
				c0-28.43,9.39-52.07,28.17-70.93c20.77-20.64,49.21-30.96,85.35-30.96c65.86,0,98.79,32.19,98.79,96.56v106.2H514.01z
				 M694.95-4144.99c0-39.77-15.58-59.66-46.73-59.66c-16.08,0-28.88,5.33-38.41,15.99c-9.1,10.39-13.66,23.92-13.66,40.59
				c0,39.23,21.83,58.84,65.5,58.84h33.29V-4144.99z"/>
		</g>
	</g>
	
		<text transform="matrix(1 0 0 1 2700.4927 -2597.282)" class="st3" style="font-family:'MyriadPro-Regular'; font-size:521.6168px;">®</text>
</g>
<g>
	<path class="st3" d="M578.37,3393.12h2308.26c314.46,0,569.37-254.92,569.37-569.37V587.49c0-314.46-254.92-569.37-569.37-569.37
		H578.37C263.92,18.12,9,273.04,9,587.49v2236.26C9,3138.21,263.92,3393.12,578.37,3393.12z"/>
	<g>
		<g>
			<path class="st6" d="M2080.82,2727.51c0,0.55-0.03,1.09-0.09,1.62v-3.25C2080.79,2726.42,2080.82,2726.96,2080.82,2727.51z"/>
			<path class="st2" d="M2664.17,2592.46c-224.19-140.33-292.99,275.09-489.7,268.33v0.31c224.19,140.33,292.99-275.09,489.7-268.33
				V2592.46z"/>
			<path class="st2" d="M944.2,2828.2c141.75-12.73,147.6-280.29,323.03-195.88V2632c-131.03-19.02-171.53,317.02-323.03,195.88
				V2828.2z"/>
			<path class="st0" d="M2289.11,2556.81v152.09c0,33.66-27.29,60.95-60.95,60.95h-383.34c-13.28,0-24.04-10.76-24.04-24.04v-357.84
				c0-13.05,10.58-23.62,23.62-23.62h42.58c13.04,0,23.62,10.57,23.62,23.62v339.55c0.99,19.9,24.62,13.17,37.57,14.27
				c7.88,0,14.27-6.39,14.27-14.27v-170.53c0-13.04,10.57-23.62,23.62-23.62h42.58c13.05,0,23.62,10.58,23.62,23.62v170.53
				c0.17,17.73,26.3,19.22,28.45,1.62c0.2-5.1-0.14-167.46,0-172.15c0-13.04,10.57-23.62,23.62-23.62h42.58
				c13.05,0,23.62,10.58,23.62,23.62v170.67c0,7.8,6.43,14.13,14.37,14.13c7.93,0,14.36-6.33,14.36-14.13v-170.84
				c0-13.04,10.58-23.62,23.62-23.62h42.58C2278.54,2533.19,2289.11,2543.76,2289.11,2556.81z"/>
			<path class="st0" d="M1550.65,2497.03h-36.84c-10.07,0-18.24-8.16-18.24-18.24v-36.84c0-10.07,8.16-18.24,18.24-18.24h36.84
				c10.07,0,18.24,8.16,18.24,18.24v36.84C1568.89,2488.86,1560.72,2497.03,1550.65,2497.03z"/>
			<path class="st0" d="M1633.13,2497.03h-36.84c-10.07,0-18.24-8.16-18.24-18.24v-36.84c0-10.07,8.16-18.24,18.24-18.24h36.84
				c10.07,0,18.24,8.16,18.24,18.24v36.84C1651.36,2488.86,1643.2,2497.03,1633.13,2497.03z"/>
			<path class="st0" d="M1001.7,3047.12h-36.84c-10.07,0-18.24-8.16-18.24-18.24v-36.84c0-10.07,8.16-18.24,18.24-18.24h36.84
				c10.07,0,18.24,8.16,18.24,18.24v36.84C1019.93,3038.96,1011.77,3047.12,1001.7,3047.12z"/>
			<path class="st0" d="M1084.17,3047.12h-36.84c-10.07,0-18.24-8.16-18.24-18.24v-36.84c0-10.07,8.16-18.24,18.24-18.24h36.84
				c10.07,0,18.24,8.16,18.24,18.24v36.84C1102.41,3038.96,1094.25,3047.12,1084.17,3047.12z"/>
			<path class="st0" d="M1790.68,2387.96v326.03c0,30.85-25.01,55.85-55.85,55.85h-358.29c-12.08,0-21.88-9.79-21.88-21.88v-73.65
				c-77.87,27.53-147.68,213.55-242.23,260.87c-207.3,72.29-286.41-112.58-216.35-237.13c-23.78,99.47,22.05,201.99,96.22,201.99
				c125.83,25.77,203.93-239.61,322.68-276.07c34.85-4.57,127.4-11.13,127.15,34.94c0,0,0,68.59,0,68.59
				c0,7.88,6.39,14.27,14.27,14.27h56.87c7.89,0,14.27-6.39,14.27-14.27v-170.64c0-13.05,10.58-23.63,23.63-23.63h42.58
				c13.04,0,23.62,10.58,23.62,23.63v170.64c0,7.88,6.39,14.27,14.27,14.27h54.94c7.88,0,14.27-6.39,14.27-14.27v-339.55
				c0-13.05,10.57-23.62,23.62-23.62h42.58C1780.11,2364.34,1790.68,2374.91,1790.68,2387.96z"/>
		</g>
		<g>
			<path class="st0" d="M1333.92,2943.24c-21.95,0-33.9-8.86-35.84-26.57h-2.98c-3.93,0-6.49,1.29-7.69,3.88
				c-1.19,2.59-1.28,7.09-0.27,13.52l7.02,44.77h-17.23l-6.89-43.43c-1.59-10.22-0.42-18.16,3.51-23.83
				c4.33-6.11,11.7-9.17,22.13-9.17h3.25c1.63-7.54,5.28-13.56,10.93-18.07c6.1-4.86,13.8-7.3,23.12-7.3
				c20.45,0,30.68,10.51,30.68,31.52v34.67H1333.92z M1346.31,2910.79c0-12.98-4.86-19.48-14.58-19.48c-4.99,0-8.94,1.74-11.86,5.22
				c-2.83,3.39-4.24,7.81-4.24,13.25c0,12.81,6.78,19.21,20.34,19.21h10.34V2910.79z"/>
			<path class="st0" d="M1379.97,2975.97l1.13-14.79c7.07,1.56,14.11,2.34,21.14,2.34c15.68,0,23.52-6.07,23.52-18.2v-2.08h-10.6
				c-24.25,0-36.38-10.6-36.38-31.79c0-9.73,2.87-17.71,8.61-23.96c6.45-6.96,15.57-10.44,27.36-10.44c10.64,0,20.1,1.58,28.36,4.75
				v47.18h13.25v14.25h-13.25v0.27c0,10.17-3.29,18.25-9.87,24.23c-7.33,6.69-18.2,10.04-32.6,10.04
				C1393.84,2977.78,1386.95,2977.18,1379.97,2975.97z M1425.75,2893.79c-3.45-1.65-7.75-2.48-12.92-2.48
				c-4.99,0-8.95,1.74-11.86,5.22c-2.87,3.39-4.31,7.81-4.31,13.25c0,12.81,6.8,19.21,20.41,19.21h8.68V2893.79z"/>
			<path class="st0" d="M1454.38,2928.99h16.83v-82.39h17.89v82.39h13.58v14.25h-48.3V2928.99z"/>
			<path class="st0" d="M1500.62,2928.99h4.77c12.5,0,23.03-1.41,31.6-4.22c-12.06-11.42-21.56-18.09-28.49-20.01l1.46-12.92
				c13.91-10.13,26.99-15.19,39.22-15.19c9.54,0,16.85,2.25,21.93,6.76c4.46,4.02,6.69,9.26,6.69,15.73c0,9.73-4.62,18.5-13.85,26.3
				c4.86,2.37,9.89,3.55,15.11,3.55h8.94v14.25h-11c-10.2,0-19.52-2.83-27.96-8.5c-12.54,5.67-27.47,8.5-44.79,8.5h-3.64V2928.99z
				 M1551.64,2917.08c5.61-4.46,8.42-9.68,8.42-15.66c0-3.39-1.06-6.11-3.18-8.17c-2.3-2.23-5.54-3.35-9.74-3.35
				c-5.61,0-12.48,2.74-20.61,8.23C1530.06,2899.56,1538.43,2905.88,1551.64,2917.08z"/>
			<path class="st0" d="M1585.96,2928.99h16.83v-82.39h17.89v96.64h-34.72V2928.99z"/>
			<path class="st0" d="M1643.74,2846.6h17.89v96.64h-17.89V2846.6z"/>
			<path class="st0" d="M1679.45,2975.97l1.13-14.79c7.07,1.56,14.11,2.34,21.14,2.34c15.68,0,23.52-6.07,23.52-18.2v-2.08h-10.6
				c-24.25,0-36.38-10.6-36.38-31.79c0-9.73,2.87-17.71,8.61-23.96c6.45-6.96,15.57-10.44,27.36-10.44c10.64,0,20.1,1.58,28.36,4.75
				v61.71c0,10.17-3.29,18.25-9.87,24.23c-7.33,6.69-18.2,10.04-32.6,10.04C1693.32,2977.78,1686.43,2977.18,1679.45,2975.97z
				 M1725.24,2893.79c-3.45-1.65-7.75-2.48-12.92-2.48c-4.99,0-8.95,1.74-11.86,5.22c-2.87,3.39-4.31,7.81-4.31,13.25
				c0,12.81,6.8,19.21,20.41,19.21h8.68V2893.79z"/>
			<path class="st0" d="M1835.75,2943.24c-17.71,0-30.63-3.64-38.76-10.91c-7.38-6.56-11.07-16.44-11.07-29.65
				c0-7.85,1.17-15.04,3.51-21.55l19.15-3.15c-3.09,6.83-4.64,14.37-4.64,22.62c0,9.95,2.45,17.09,7.35,21.42
				c5.17,4.64,13.94,6.96,26.3,6.96h18.49v-50.2h17.89v64.45H1835.75z M1816.07,2865.68c-1.72-1.78-2.58-3.97-2.58-6.56
				c0-2.59,0.86-4.8,2.58-6.63c1.72-1.83,3.84-2.74,6.36-2.74c2.56,0,4.73,0.92,6.49,2.74c1.72,1.79,2.58,3.99,2.58,6.63
				c0,2.54-0.86,4.73-2.58,6.56c-1.77,1.83-3.93,2.74-6.49,2.74C1819.92,2868.42,1817.8,2867.51,1816.07,2865.68z M1838.6,2865.68
				c-1.72-1.78-2.58-3.97-2.58-6.56c0-2.59,0.86-4.8,2.58-6.63c1.72-1.83,3.84-2.74,6.36-2.74s4.64,0.92,6.36,2.74
				c1.72,1.79,2.58,3.99,2.58,6.63c0,2.54-0.86,4.73-2.58,6.56c-1.77,1.83-3.89,2.74-6.36,2.74
				C1842.44,2868.42,1840.32,2867.51,1838.6,2865.68z"/>
			<path class="st0" d="M1895.58,2846.6h17.89v82.39h13.58v14.25h-31.47V2846.6z"/>
			<path class="st0" d="M1925,2928.99h4.77c12.5,0,23.03-1.41,31.6-4.22c-12.06-11.42-21.56-18.09-28.49-20.01l1.46-12.92
				c13.91-10.13,26.99-15.19,39.22-15.19c9.54,0,16.85,2.25,21.93,6.76c4.46,4.02,6.69,9.26,6.69,15.73c0,9.73-4.62,18.5-13.85,26.3
				c4.86,2.37,9.89,3.55,15.11,3.55h8.94v14.25h-11c-10.2,0-19.52-2.83-27.96-8.5c-12.54,5.67-27.47,8.5-44.79,8.5H1925V2928.99z
				 M1976.02,2917.08c5.61-4.46,8.42-9.68,8.42-15.66c0-3.39-1.06-6.11-3.18-8.17c-2.3-2.23-5.54-3.35-9.74-3.35
				c-5.61,0-12.48,2.74-20.61,8.23C1954.44,2899.56,1962.81,2905.88,1976.02,2917.08z M1964.82,2863.74
				c-1.86-1.83-2.78-4.06-2.78-6.69c0-2.63,0.93-4.86,2.78-6.69c1.81-1.87,4-2.81,6.56-2.81c2.61,0,4.81,0.94,6.63,2.81
				c1.85,1.83,2.78,4.06,2.78,6.69c0,2.59-0.93,4.82-2.78,6.69c-1.81,1.83-4.02,2.74-6.63,2.74
				C1968.82,2866.48,1966.63,2865.57,1964.82,2863.74z"/>
			<path class="st0" d="M2010.34,2928.99h16.83v-82.39h17.89v82.39h13.58v14.25h-48.3V2928.99z"/>
			<path class="st0" d="M2056.59,2928.99h16.83v-82.39h17.89v96.64h-34.72V2928.99z"/>
		</g>
		<g>
			<path class="st0" d="M2055.29,2474.03c-29.2,0-43.8-12.14-43.8-36.41c0-11.14,3.46-20.29,10.37-27.44
				c7.76-7.97,18.75-11.96,32.95-11.96c12.82,0,24.2,1.81,34.14,5.44v54.04h15.96v16.33H2055.29z M2031.44,2385.2
				c-2.07-2.04-3.11-4.55-3.11-7.51c0-2.96,1.04-5.49,3.11-7.59c2.13-2.09,4.68-3.14,7.66-3.14c3.08,0,5.69,1.05,7.82,3.14
				c2.07,2.04,3.11,4.57,3.11,7.59c0,2.91-1.04,5.42-3.11,7.51c-2.13,2.1-4.73,3.14-7.82,3.14
				C2036.06,2388.34,2033.51,2387.29,2031.44,2385.2z M2068.05,2417.39c-4.15-1.89-9.33-2.84-15.56-2.84
				c-6.01,0-10.77,1.99-14.28,5.98c-3.46,3.88-5.19,8.94-5.19,15.18c0,14.67,8.19,22,24.57,22h10.45V2417.39z M2058.56,2385.2
				c-2.07-2.04-3.11-4.55-3.11-7.51c0-2.96,1.04-5.49,3.11-7.59c2.13-2.09,4.68-3.14,7.66-3.14c3.03,0,5.58,1.05,7.66,3.14
				c2.07,2.04,3.11,4.57,3.11,7.59c0,2.91-1.04,5.42-3.11,7.51c-2.07,2.1-4.63,3.14-7.66,3.14S2060.63,2387.29,2058.56,2385.2z"/>
			<path class="st0" d="M2102.52,2457.71h24.97c-8.46-4.8-12.68-12.6-12.68-23.38c0-10.37,3.51-18.83,10.53-25.37
				c7.71-7.15,18.45-10.73,32.23-10.73c7.29,0,14.04,1,20.26,2.99l-3.75,16.48c-5-2.2-10.66-3.3-16.99-3.3
				c-6.17,0-11.14,1.81-14.92,5.44c-3.78,3.63-5.66,8.46-5.66,14.49c0,7.05,2.95,12.62,8.86,16.71c6.43,4.45,15.85,6.67,28.24,6.67
				h12.76v16.33h-83.84V2457.71z"/>
			<path class="st0" d="M2202.39,2511.51l1.36-16.94c8.51,1.79,16.99,2.68,25.45,2.68c18.88,0,28.32-6.95,28.32-20.85v-2.38h-12.76
				c-29.2,0-43.8-12.14-43.8-36.41c0-11.14,3.46-20.29,10.37-27.44c7.76-7.97,18.75-11.96,32.95-11.96c12.82,0,24.2,1.81,34.14,5.44
				v54.04h15.96v16.33h-15.96v0.31c0,11.65-3.96,20.9-11.89,27.75c-8.83,7.67-21.91,11.5-39.25,11.5
				C2219.09,2513.58,2210.79,2512.89,2202.39,2511.51z M2257.52,2417.39c-4.15-1.89-9.33-2.84-15.56-2.84
				c-6.01,0-10.77,1.99-14.28,5.98c-3.46,3.88-5.18,8.94-5.18,15.18c0,14.67,8.19,22,24.57,22h10.45V2417.39z"/>
			<path class="st0" d="M2353.8,2474.03c-17.6,0-29.81-4.09-36.62-12.26c-3.3,8.18-11.94,12.26-25.93,12.26h-2.47v-16.33
				c6.38,0,11.09-1.51,14.12-4.52c3.35-3.32,5.03-8.94,5.03-16.86c0-10.63,3.51-19.47,10.53-26.52c7.76-7.71,18.4-11.57,31.91-11.57
				c24.62,0,36.93,12.03,36.93,36.1v23.38h13.72v16.33H2353.8z M2366.25,2436.86c0-14.87-5.82-22.3-17.47-22.3
				c-6.01,0-10.8,1.99-14.36,5.98c-3.4,3.88-5.11,8.94-5.11,15.18c0,14.67,8.16,22,24.49,22h12.45V2436.86z"/>
			<path class="st0" d="M2398.48,2457.71h63.26c0.53-4.19,0.8-8.18,0.8-11.96c0-10.22-2.39-17.73-7.18-22.54
				c-5.11-5.06-13.4-7.59-24.89-7.59c-6.06,0-12.31,0.44-18.75,1.3v-16.17c7.66-0.97,14.62-1.46,20.9-1.46
				c18.03,0,31.16,3.86,39.41,11.57c7.92,7.36,11.89,18.73,11.89,34.11c0,4.45-0.21,8.69-0.64,12.72h12.76v16.33h-97.56V2457.71z
				 M2429.27,2505.31c-2.23-2.1-3.35-4.68-3.35-7.74c0-2.96,1.12-5.52,3.35-7.67c2.18-2.1,4.81-3.14,7.9-3.14
				c3.14,0,5.8,1.05,7.98,3.14c2.23,2.09,3.35,4.65,3.35,7.67c0,3.01-1.12,5.57-3.35,7.67c-2.18,2.15-4.84,3.22-7.98,3.22
				C2434.08,2508.45,2431.45,2507.4,2429.27,2505.31z"/>
			<path class="st0" d="M2493.49,2474.03v-16.33h9.33c3.78,0,6.81,0.36,9.09,1.07c-6.06-4.24-9.09-11.73-9.09-22.46
				c0-10.63,3.51-19.47,10.53-26.52c7.76-7.71,18.4-11.57,31.91-11.57c24.62,0,36.93,12.03,36.93,36.1v39.7H2493.49z
				 M2561.14,2436.86c0-14.87-5.82-22.3-17.47-22.3c-6.01,0-10.8,1.99-14.36,5.98c-3.4,3.88-5.11,8.94-5.11,15.18
				c0,14.67,8.16,22,24.49,22h12.45V2436.86z"/>
		</g>
	</g>
	<g>
		<g>
		</g>
		<g>
			<g>
				<path class="st0" d="M2527.75,723.7v1065.34c0,170.56-138.27,308.83-308.83,308.83H1153.58
					c-170.56,0-308.83-138.27-308.83-308.83V723.7c0-170.56,138.27-308.83,308.83-308.83h1065.34c65,0,125.31,20.08,175.06,54.38
					c1.69,1.16,3.37,2.34,5.03,3.55C2476.97,528.84,2527.75,620.34,2527.75,723.7z"/>
			</g>
			<g>
				<defs>
					<path id="SVGID_00000124150598334253521630000014876759910184194453_" d="M2218.92,2097.87H1153.58
						c-170.56,0-308.83-138.27-308.83-308.83V723.7c0-170.56,138.27-308.83,308.83-308.83h1065.34
						c170.56,0,308.83,138.27,308.83,308.83v1065.34C2527.75,1959.6,2389.48,2097.87,2218.92,2097.87z"/>
				</defs>
				<clipPath id="SVGID_00000181766758048461499510000006337294263402147973_">
					<use xlink:href="#SVGID_00000124150598334253521630000014876759910184194453_"  style="overflow:visible;"/>
				</clipPath>
				<g style="clip-path:url(#SVGID_00000181766758048461499510000006337294263402147973_);">
					<g>
						<g>
							<polygon class="st2" points="1772,1288.36 2384.67,-1576.16 2063.55,-1662.21 1990.73,-1647.3 1950.01,-1623.8 							"/>
						</g>
					</g>
					<g>
						<g>
							<polygon class="st2" points="1772,1288.36 3105.18,-1319.99 2817.28,-1486.21 2743.08,-1490.66 2697.67,-1478.49 							"/>
						</g>
					</g>
					<g>
						<g>
							<polygon class="st2" points="1772,1288.36 3734.84,-886.06 3499.77,-1121.13 3429.25,-1144.63 3382.24,-1144.63 							"/>
						</g>
					</g>
					<g>
						<g>
							<polygon class="st2" points="1772,1288.36 4230.74,-303.94 4064.52,-591.84 4002.49,-632.8 3957.07,-644.97 							"/>
						</g>
					</g>
					<g>
						<g>
							<polygon class="st2" points="1772,1288.36 4559.08,386.68 4473.04,65.57 4423.72,9.95 4383,-13.56 							"/>
						</g>
					</g>
					<g>
						<g>
							<polygon class="st2" points="1772,1288.36 4697.48,1138.76 4697.48,806.32 4664.24,739.83 4630.99,706.58 							"/>
						</g>
					</g>
					<g>
						<g>
							<polygon class="st2" points="1772,1288.36 4636.52,1901.03 4722.56,1579.91 4707.66,1507.08 4684.15,1466.37 							"/>
						</g>
					</g>
					<g>
						<g>
							<polygon class="st2" points="1772,1288.36 4380.34,2621.54 4546.56,2333.64 4551.01,2259.44 4538.85,2214.02 							"/>
						</g>
					</g>
					<g>
						<g>
							<polygon class="st2" points="1772,1288.36 3946.41,3251.2 4181.48,3016.13 4204.99,2945.61 4204.99,2898.6 							"/>
						</g>
					</g>
					<g>
						<g>
							<polygon class="st2" points="1772,1288.36 3364.29,3747.1 3652.2,3580.88 3693.16,3518.84 3705.32,3473.43 							"/>
						</g>
					</g>
					<g>
						<g>
							<polygon class="st2" points="1772,1288.36 2673.67,4075.44 2994.78,3989.39 3050.4,3940.07 3073.91,3899.36 							"/>
						</g>
					</g>
					<g>
						<g>
							<polygon class="st2" points="1772,1288.36 1921.6,4213.84 2254.04,4213.84 2320.53,4180.59 2353.77,4147.35 							"/>
						</g>
					</g>
					<g>
						<g>
							<polygon class="st2" points="1772,1288.36 1159.33,4152.87 1480.44,4238.92 1553.27,4224.01 1593.98,4200.51 							"/>
						</g>
					</g>
					<g>
						<g>
							<polygon class="st2" points="1772,1288.36 438.81,3896.7 726.71,4062.92 800.92,4067.37 846.33,4055.2 							"/>
						</g>
					</g>
					<g>
						<g>
							<polygon class="st2" points="1772,1288.36 -190.85,3462.77 44.22,3697.84 114.74,3721.35 161.76,3721.35 							"/>
						</g>
					</g>
					<g>
						<g>
							<polygon class="st2" points="1772,1288.36 -686.75,2880.65 -520.53,3168.56 -458.49,3209.51 -413.08,3221.68 							"/>
						</g>
					</g>
					<g>
						<g>
							<polygon class="st2" points="1772,1288.36 -1015.08,2190.03 -929.04,2511.14 -879.72,2566.76 -839.01,2590.27 							"/>
						</g>
					</g>
					<g>
						<g>
							<polygon class="st2" points="1772,1288.36 -1153.49,1437.95 -1153.49,1770.4 -1120.24,1836.88 -1087,1870.13 							"/>
						</g>
					</g>
					<g>
						<g>
							<polygon class="st2" points="1772,1288.36 -1092.52,675.69 -1178.56,996.8 -1163.66,1069.63 -1140.15,1110.34 							"/>
						</g>
					</g>
					<g>
						<g>
							<polygon class="st2" points="1772,1288.36 -836.35,-44.83 -1002.57,243.07 -1007.02,317.28 -994.85,362.69 							"/>
						</g>
					</g>
					<g>
						<g>
							<polygon class="st2" points="1772,1288.36 -402.41,-674.49 -637.49,-439.42 -660.99,-368.9 -660.99,-321.88 							"/>
						</g>
					</g>
					<g>
						<g>
							<polygon class="st2" points="1772,1288.36 179.7,-1170.39 -108.2,-1004.17 -149.16,-942.13 -161.33,-896.72 							"/>
						</g>
					</g>
					<g>
						<g>
							<polygon class="st2" points="1772,1288.36 870.33,-1498.73 549.21,-1412.68 493.59,-1363.36 470.09,-1322.65 							"/>
						</g>
					</g>
					<g>
						<g>
							<polygon class="st2" points="1772,1288.36 1622.4,-1637.13 1289.96,-1637.13 1223.47,-1603.88 1190.22,-1570.64 							"/>
						</g>
					</g>
				</g>
			</g>
			<g>
				<g>
					<path class="st3" d="M2393.98,469.25C1876.72,751.85,1727,1333.12,1727,1333.12s-285.14,151.48-305.71,764.75h387.85
						c13.75-109.22,155.7-1157.87,589.87-1625.07L2393.98,469.25z"/>
				</g>
				<g>
					
						<ellipse transform="matrix(0.9934 -0.1146 0.1146 0.9934 -113.3574 190.0413)" class="st3" cx="1596.5" cy="1081.12" rx="150.62" ry="290.83"/>
				</g>
			</g>
			<g>
				<g>
					<g>
						<path class="st8" d="M2546,280.12c-0.01,0.01-0.01,0.01-0.01,0.02c-0.01,0.01-0.02,0.02-0.03,0.04
							c-31.62,31.69-66.29,134.18-89.62,213.74c-0.01,0.06-0.03,0.12-0.05,0.18c-8.83,29.12-17.74,61.51-26.4,97.38
							c-0.09,0.38-0.18,0.73-0.26,1.05c-0.41,1.69-0.63,2.59-0.63,2.59c-29.97-31.55-69.4-54.84-153-81l81-162l-225-126L2546,280.12
							z"/>
					</g>
					<g>
						<path class="st0" d="M3005,514.12l-270-45l-27,180c0,0-144-63-279-54c0,0,0.22-0.9,0.63-2.59c0.08-0.32,0.17-0.67,0.26-1.05
							c2.91-11.76,12.68-50.58,26.4-97.38c0.02-0.06,0.04-0.12,0.05-0.18c23.33-79.56,58-182.05,89.62-213.74
							c0.01-0.02,0.02-0.03,0.03-0.04c0-0.01,0-0.01,0.01-0.02L3005,514.12z"/>
					</g>
				</g>
				<g>
					<g>
						<g>
							<polygon class="st3" points="2732.51,907.77 2816,460.12 2708.89,894.68 							"/>
						</g>
					</g>
					<g>
						<g>
							<polygon class="st3" points="2672,892.12 2816,460.12 2699,892.12 							"/>
						</g>
					</g>
				</g>
			</g>
		</g>
		<g>
			<path class="st0" d="M2738.25,2011c0,47.99-38.6,86.07-87.63,86.07s-88.15-38.08-88.15-86.07s39.12-85.55,88.68-85.55
				C2699.65,1925.45,2738.25,1963.01,2738.25,2011z M2584.37,2011c0,38.08,28.69,68.33,66.77,68.33
				c37.04,0.52,65.2-30.25,65.2-67.81c0-38.08-28.17-68.85-66.25-68.85C2613.06,1942.66,2584.37,1973.44,2584.37,2011z
				 M2637.05,2055.33h-19.82v-85.55c7.82-1.04,18.78-2.61,32.86-2.61c16.17,0,23.47,2.61,29.21,6.78c5.22,3.65,8.87,9.91,8.87,18.26
				c0,10.43-7.82,17.21-17.74,20.34v1.04c8.35,2.61,12.52,9.39,15.13,20.87c2.61,13.04,4.69,17.73,6.26,20.86h-20.87
				c-2.61-3.13-4.17-10.43-6.78-20.86c-1.56-8.87-6.78-13.04-17.74-13.04h-9.39V2055.33z M2637.58,2007.34h9.39
				c10.95,0,19.82-3.65,19.82-12.52c0-7.82-5.74-13.04-18.26-13.04c-5.22,0-8.87,0.52-10.95,1.04V2007.34z"/>
		</g>
	</g>
</g>
<g>
	<g>
		<defs>
			<rect id="SVGID_00000054957937305249494440000001379210129693309339_" x="-3870" y="-7358.17" width="7182" height="2211.17"/>
		</defs>
		<clipPath id="SVGID_00000028299027744722250840000018130395230119509692_">
			<use xlink:href="#SVGID_00000054957937305249494440000001379210129693309339_"  style="overflow:visible;"/>
		</clipPath>
	</g>
	<g>
		<defs>
			<rect id="SVGID_00000172429197648539013770000014581154624184102573_" x="-3870" y="-7358.17" width="7182" height="2211.17"/>
		</defs>
		<clipPath id="SVGID_00000026157193575839859030000000016487051154792614_">
			<use xlink:href="#SVGID_00000172429197648539013770000014581154624184102573_"  style="overflow:visible;"/>
		</clipPath>
		<g style="clip-path:url(#SVGID_00000026157193575839859030000000016487051154792614_);">
			<defs>
				<rect id="SVGID_00000116234656933483201280000009883901884821834421_" x="-597.49" y="-6062.47" width="0.25" height="8.78"/>
			</defs>
			<clipPath id="SVGID_00000111885163834806548560000007759992163921483911_">
				<use xlink:href="#SVGID_00000116234656933483201280000009883901884821834421_"  style="overflow:visible;"/>
			</clipPath>
			<path style="clip-path:url(#SVGID_00000111885163834806548560000007759992163921483911_);fill:#FFFFFF;" d="M-597.23-6058.08
				c0,1.49-0.08,2.95-0.25,4.39v-8.78C-597.31-6061.03-597.23-6059.57-597.23-6058.08"/>
		</g>
		<path style="clip-path:url(#SVGID_00000026157193575839859030000000016487051154792614_);" d="M980.99-6423.45
			c-606.55-379.65-792.66,744.25-1324.87,725.97v0.84c606.55,379.66,792.66-744.25,1324.87-725.97V-6423.45z"/>
		<path style="clip-path:url(#SVGID_00000026157193575839859030000000016487051154792614_);" d="M-3672.33-5785.68
			c383.49-34.45,399.33-758.32,873.95-529.95v-0.84c-354.5-51.45-464.05,857.67-873.95,529.95V-5785.68z"/>
		<path style="clip-path:url(#SVGID_00000026157193575839859030000000016487051154792614_);" d="M-33.71-6519.91v411.46
			c0,91.08-73.83,164.9-164.9,164.9h-1037.1c-35.93,0-65.05-29.12-65.05-65.05v-968.12c0-35.3,28.62-63.91,63.91-63.91h115.21
			c35.29,0,63.91,28.61,63.91,63.91v918.64c2.67,53.83,66.61,35.62,101.65,38.61c21.32,0,38.61-17.29,38.61-38.61v-461.35
			c0-35.29,28.61-63.91,63.91-63.91h115.2c35.3,0,63.91,28.62,63.91,63.91v461.35c0.45,47.96,71.15,51.99,76.97,4.39
			c0.53-13.8-0.38-453.07,0-465.75c0-35.28,28.6-63.9,63.91-63.9h115.2c35.3,0,63.91,28.62,63.91,63.91v461.74
			c0,21.11,17.41,38.23,38.87,38.23s38.86-17.11,38.86-38.23v-462.21c0-35.29,28.62-63.91,63.91-63.91h115.21
			C-62.32-6583.81-33.71-6555.2-33.71-6519.91"/>
		<path style="clip-path:url(#SVGID_00000026157193575839859030000000016487051154792614_);" d="M-2031.59-6681.65h-99.67
			c-27.25,0-49.34-22.09-49.34-49.34v-99.67c0-27.25,22.09-49.34,49.34-49.34h99.67c27.25,0,49.34,22.09,49.34,49.34v99.67
			C-1982.25-6703.74-2004.34-6681.65-2031.59-6681.65"/>
		<path style="clip-path:url(#SVGID_00000026157193575839859030000000016487051154792614_);" d="M-1808.46-6681.65h-99.67
			c-27.25,0-49.34-22.09-49.34-49.34v-99.67c0-27.25,22.09-49.34,49.34-49.34h99.67c27.25,0,49.34,22.09,49.34,49.34v99.67
			C-1759.12-6703.74-1781.21-6681.65-1808.46-6681.65"/>
		<path style="clip-path:url(#SVGID_00000026157193575839859030000000016487051154792614_);" d="M-3516.76-5193.38h-99.67
			c-27.25,0-49.34-22.09-49.34-49.34v-99.67c0-27.25,22.09-49.34,49.34-49.34h99.67c27.25,0,49.34,22.09,49.34,49.34v99.67
			C-3467.42-5215.47-3489.51-5193.38-3516.76-5193.38"/>
		<path style="clip-path:url(#SVGID_00000026157193575839859030000000016487051154792614_);" d="M-3293.62-5193.38h-99.67
			c-27.25,0-49.34-22.09-49.34-49.34v-99.67c0-27.25,22.09-49.34,49.34-49.34h99.67c27.25,0,49.34,22.09,49.34,49.34v99.67
			C-3244.28-5215.47-3266.37-5193.38-3293.62-5193.38"/>
		<path style="clip-path:url(#SVGID_00000026157193575839859030000000016487051154792614_);" d="M-1382.19-6976.72v882.06
			c0,83.46-67.65,151.11-151.11,151.11h-969.33c-32.68,0-59.18-26.49-59.18-59.18v-199.26
			c-210.68,74.49-399.54,577.76-655.34,705.77c-560.86,195.58-774.86-304.59-585.34-641.54
			c-64.33,269.11,59.66,546.48,260.32,546.48c340.42,69.72,551.72-648.26,873-746.89c94.28-12.38,344.67-30.11,344.01,94.52
			c0,0,0,185.56,0,185.56c0,21.32,17.29,38.61,38.61,38.61h153.85c21.33,0,38.61-17.29,38.61-38.61v-461.65
			c0-35.3,28.62-63.92,63.92-63.92h115.2c35.29,0,63.91,28.62,63.91,63.92v461.65c0,21.32,17.29,38.61,38.61,38.61h148.63
			c21.32,0,38.61-17.29,38.61-38.61v-918.64c0-35.3,28.61-63.91,63.91-63.91h115.2
			C-1410.81-7040.63-1382.19-7012.02-1382.19-6976.72"/>
	</g>
	<path d="M-2592.84-5474.42c-59.4,0-91.72-23.96-96.98-71.88h-8.07c-10.64,0-17.57,3.5-20.79,10.5c-3.23,7-3.47,19.19-0.72,36.58
		l19,121.13H-2747l-18.64-117.51c-4.3-27.64-1.14-49.13,9.5-64.46c11.71-16.54,31.67-24.81,59.87-24.81h8.78
		c4.42-20.4,14.28-36.69,29.58-48.89c16.49-13.16,37.34-19.74,62.56-19.74c55.33,0,83,28.43,83,85.28v93.79H-2592.84z
		 M-2559.32-5562.24c0-35.13-13.15-52.69-39.44-52.69c-13.51,0-24.2,4.71-32.09,14.12c-7.65,9.17-11.47,21.13-11.47,35.85
		c0,34.65,18.34,51.97,55.03,51.97h27.96V-5562.24z M-2421.31-5380.99c-18.4,0-37.05-1.63-55.93-4.89l3.05-40.02
		c19.12,4.22,38.18,6.34,57.18,6.34c42.42,0,63.64-16.42,63.64-49.25v-5.61h-28.68c-65.61,0-98.41-28.67-98.41-86.01
		c0-26.31,7.77-47.92,23.3-64.82c17.45-18.83,42.12-28.25,74.03-28.25c28.8,0,54.37,4.29,76.72,12.86v127.65h35.85v38.57h-35.85
		v0.72c0,27.52-8.9,49.37-26.71,65.55C-2352.96-5390.05-2382.36-5380.99-2421.31-5380.99L-2421.31-5380.99z M-2353.38-5608.23
		c-9.32-4.46-20.97-6.7-34.95-6.7c-13.51,0-24.2,4.71-32.09,14.12c-7.77,9.17-11.65,21.13-11.65,35.85
		c0,34.65,18.4,51.97,55.21,51.97h23.48V-5608.23z M-2275.88-5512.99h45.53v-222.89h48.4v222.89h36.75v38.57h-130.68V-5512.99z
		 M-2150.69-5512.99h12.91c33.82,0,62.32-3.8,85.5-11.41c-32.62-30.9-58.32-48.95-77.08-54.14l3.94-34.95
		c37.64-27.4,73.02-41.1,106.12-41.1c25.81,0,45.59,6.1,59.33,18.29c12.07,10.86,18.1,25.05,18.1,42.55
		c0,26.32-12.49,50.04-37.46,71.16c13.14,6.4,26.77,9.6,40.87,9.6h24.2v38.57h-29.76c-27.61,0-52.82-7.66-75.65-23
		c-33.94,15.33-74.33,23-121.18,23h-9.86V-5512.99z M-2080.6-5596.46c9.56,3.86,32.2,20.94,67.94,51.24
		c15.18-12.07,22.77-26.19,22.77-42.37c0-9.17-2.87-16.54-8.6-22.09c-6.22-6.03-15-9.05-26.35-9.05
		C-2040.03-5618.73-2058.62-5611.31-2080.6-5596.46L-2080.6-5596.46z M-1919.78-5512.99h45.53v-222.89h48.4v261.46h-93.93V-5512.99z
		 M-1763.4-5735.88h48.4v261.46h-48.4V-5735.88z M-1626.99-5380.99c-18.4,0-37.05-1.63-55.93-4.89l3.05-40.02
		c19.12,4.22,38.18,6.34,57.18,6.34c42.42,0,63.64-16.42,63.64-49.25v-5.61h-28.68c-65.61,0-98.41-28.67-98.41-86.01
		c0-26.31,7.77-47.92,23.3-64.82c17.45-18.83,42.13-28.25,74.03-28.25c28.8,0,54.37,4.29,76.72,12.86v166.94
		c0,27.52-8.9,49.37-26.71,65.55C-1558.64-5390.05-1588.04-5380.99-1626.99-5380.99L-1626.99-5380.99z M-1559.06-5608.23
		c-9.32-4.46-20.97-6.7-34.95-6.7c-13.51,0-24.2,4.71-32.09,14.12c-7.77,9.17-11.65,21.13-11.65,35.85
		c0,34.65,18.4,51.97,55.21,51.97h23.48V-5608.23z M-1260.15-5474.42c-47.92,0-82.88-9.84-104.86-29.51
		c-19.96-17.74-29.94-44.48-29.94-80.21c0-21.24,3.16-40.68,9.5-58.3l51.8-8.51c-8.37,18.47-12.55,38.87-12.55,61.2
		c0,26.92,6.63,46.23,19.9,57.94c13.98,12.56,37.7,18.83,71.16,18.83h50.01v-135.8h48.4v174.37H-1260.15z M-1296.18-5676.85
		c-6.81,0-12.55-2.47-17.21-7.42c-4.66-4.83-6.99-10.74-6.99-17.74c0-7,2.33-12.97,6.99-17.93c4.66-4.95,10.4-7.42,17.21-7.42
		c6.93,0,12.79,2.48,17.57,7.42c4.66,4.83,6.99,10.8,6.99,17.93c0,6.88-2.33,12.8-6.99,17.74
		C-1283.39-5679.33-1289.25-5676.85-1296.18-5676.85L-1296.18-5676.85z M-1235.23-5676.85c-6.81,0-12.55-2.47-17.21-7.42
		c-4.66-4.83-6.99-10.74-6.99-17.74c0-7,2.33-12.97,6.99-17.93c4.66-4.95,10.4-7.42,17.21-7.42s12.55,2.48,17.21,7.42
		c4.66,4.83,6.99,10.8,6.99,17.93c0,6.88-2.33,12.8-6.99,17.74C-1222.8-5679.33-1228.54-5676.85-1235.23-5676.85L-1235.23-5676.85z
		 M-1098.26-5735.88h48.4v222.89h36.75v38.57h-85.15V-5735.88z M-1018.58-5512.99h12.91c33.82,0,62.32-3.8,85.5-11.41
		c-32.62-30.9-58.32-48.95-77.08-54.14l3.94-34.95c37.64-27.4,73.02-41.1,106.12-41.1c25.81,0,45.59,6.1,59.33,18.29
		c12.07,10.86,18.1,25.05,18.1,42.55c0,26.32-12.49,50.04-37.46,71.16c13.14,6.4,26.77,9.6,40.87,9.6h24.2v38.57h-29.76
		c-27.61,0-52.82-7.66-75.65-23c-33.94,15.33-74.33,23-121.18,23h-9.86V-5512.99z M-948.5-5596.46c9.56,3.86,32.2,20.94,67.94,51.24
		c15.18-12.07,22.77-26.19,22.77-42.37c0-9.17-2.87-16.54-8.6-22.09c-6.22-6.03-15-9.05-26.35-9.05
		C-907.93-5618.73-926.51-5611.31-948.5-5596.46L-948.5-5596.46z M-893.11-5682.1c-6.93,0-12.85-2.47-17.75-7.42
		c-5.02-4.95-7.53-10.98-7.53-18.11c0-7.12,2.51-13.16,7.53-18.11c4.9-5.07,10.81-7.6,17.75-7.6c7.05,0,13.02,2.53,17.93,7.6
		c5.02,4.95,7.53,10.99,7.53,18.11c0,7-2.51,13.04-7.53,18.11C-880.08-5684.58-886.06-5682.1-893.11-5682.1L-893.11-5682.1z
		 M-787.67-5512.99h45.53v-222.89h48.4v222.89h36.75v38.57h-130.68V-5512.99z M-662.48-5512.99h45.53v-222.89h48.4v261.46h-93.93
		V-5512.99z"/>
	<path d="M-661.99-6743.85c-78.99,0-118.49-32.83-118.49-98.5c0-30.14,9.35-54.88,28.06-74.24c21.01-21.57,50.72-32.35,89.14-32.35
		c34.67,0,65.47,4.91,92.37,14.72v146.2h43.16v44.17H-661.99z M-705.81-6975.7c-8.2,0-15.11-2.83-20.72-8.5
		c-5.61-5.53-8.42-12.3-8.42-20.32c0-8.02,2.81-14.86,8.42-20.53c5.75-5.67,12.66-8.5,20.72-8.5c8.34,0,15.39,2.83,21.15,8.5
		c5.61,5.53,8.42,12.37,8.42,20.53c0,7.88-2.81,14.66-8.42,20.32C-690.41-6978.53-697.46-6975.7-705.81-6975.7L-705.81-6975.7z
		 M-627.46-6897.1c-11.22-5.11-25.25-7.67-42.09-7.67c-16.26,0-29.14,5.39-38.63,16.17c-9.35,10.51-14.03,24.19-14.03,41.06
		c0,39.68,22.16,59.52,66.47,59.52h28.27V-6897.1z M-632.43-6975.7c-8.2,0-15.11-2.83-20.72-8.5c-5.61-5.53-8.42-12.3-8.42-20.32
		c0-8.02,2.81-14.86,8.42-20.53c5.75-5.67,12.66-8.5,20.72-8.5c8.2,0,15.11,2.83,20.72,8.5c5.61,5.53,8.42,12.37,8.42,20.53
		c0,7.88-2.81,14.66-8.42,20.32C-617.32-6978.53-624.23-6975.7-632.43-6975.7L-632.43-6975.7z M-534.1-6788.02h67.55
		c-22.88-12.99-34.32-34.08-34.32-63.25c0-28.06,9.5-50.94,28.49-68.64c20.86-19.35,49.93-29.03,87.19-29.03
		c19.71,0,37.99,2.7,54.82,8.09l-10.14,44.59c-13.53-5.94-28.85-8.92-45.97-8.92c-16.69,0-30.14,4.91-40.36,14.72
		c-10.22,9.82-15.32,22.88-15.32,39.19c0,19.08,7.99,34.15,23.96,45.21c17.41,12.03,42.88,18.04,76.4,18.04h34.53v44.17H-534.1
		V-6788.02z M-200.86-6636.85c-22.16,0-44.6-1.87-67.34-5.6l3.67-45.83c23.02,4.84,45.97,7.26,68.85,7.26
		c51.08,0,76.62-18.8,76.62-56.41v-6.43h-34.53c-78.99,0-118.49-32.83-118.49-98.5c0-30.14,9.35-54.88,28.06-74.24
		c21.01-21.57,50.72-32.35,89.14-32.35c34.67,0,65.47,4.91,92.37,14.72v146.2h43.17v44.17h-43.17v0.83
		c0,31.52-10.72,56.54-32.16,75.07C-118.56-6647.22-153.95-6636.85-200.86-6636.85L-200.86-6636.85z M-119.06-6897.1
		c-11.22-5.11-25.25-7.67-42.09-7.67c-16.26,0-29.14,5.39-38.63,16.17c-9.35,10.51-14.03,24.19-14.03,41.06
		c0,39.68,22.16,59.52,66.47,59.52h28.27V-6897.1z M141.51-6743.85c-47.63,0-80.65-11.06-99.06-33.18
		c-8.92,22.12-32.3,33.18-70.14,33.18h-6.69v-44.17c17.27,0,30-4.08,38.2-12.23c9.06-8.99,13.6-24.19,13.6-45.62
		c0-28.75,9.5-52.67,28.49-71.75c21.01-20.87,49.78-31.31,86.33-31.31c66.62,0,99.93,32.56,99.93,97.67v63.25h37.12v44.17H141.51z
		 M175.18-6844.43c0-40.23-15.76-60.35-47.27-60.35c-16.26,0-29.21,5.39-38.85,16.17c-9.21,10.51-13.81,24.19-13.81,41.06
		c0,39.68,22.09,59.52,66.26,59.52h33.67V-6844.43z M262.43-6788.02h171.15c1.44-11.33,2.16-22.12,2.16-32.35
		c0-27.65-6.48-47.97-19.42-60.97c-13.81-13.69-36.26-20.53-67.34-20.53c-16.4,0-33.31,1.18-50.72,3.53v-43.76
		c20.72-2.62,39.57-3.94,56.55-3.94c48.78,0,84.31,10.44,106.62,31.31c21.44,19.91,32.16,50.67,32.16,92.28
		c0,12.03-0.58,23.5-1.73,34.42h34.53v44.17H262.43V-6788.02z M367.11-6650.74c-8.35,0-15.47-2.84-21.37-8.5
		c-6.04-5.67-9.07-12.65-9.07-20.94c0-8.02,3.02-14.93,9.07-20.74c5.9-5.67,13.02-8.5,21.37-8.5c8.49,0,15.68,2.83,21.58,8.5
		c6.04,5.67,9.07,12.58,9.07,20.74c0,8.16-3.02,15.07-9.07,20.74C382.79-6653.65,375.6-6650.74,367.11-6650.74L367.11-6650.74z
		 M519.46-6743.85v-44.17h25.25c10.21,0,18.42,0.97,24.6,2.9c-16.4-11.47-24.6-31.73-24.6-60.76c0-28.75,9.5-52.67,28.49-71.75
		c21.01-20.87,49.78-31.31,86.33-31.31c66.62,0,99.93,32.56,99.93,97.67v107.42H519.46z M702.48-6844.43
		c0-40.23-15.76-60.35-47.27-60.35c-16.26,0-29.21,5.39-38.85,16.17c-9.21,10.51-13.81,24.19-13.81,41.06
		c0,39.68,22.08,59.52,66.26,59.52h33.67V-6844.43z"/>
	<g>
		<defs>
			<rect id="SVGID_00000109017300634240363280000001532445188348375683_" x="-3870" y="-7358.17" width="7182" height="2211.17"/>
		</defs>
		<clipPath id="SVGID_00000151543438540241431150000004236247346621796748_">
			<use xlink:href="#SVGID_00000109017300634240363280000001532445188348375683_"  style="overflow:visible;"/>
		</clipPath>
		<path style="clip-path:url(#SVGID_00000151543438540241431150000004236247346621796748_);" d="M3042.21-5552.78
			c0,48.55-39.04,87.06-88.66,87.06c-49.6,0-89.17-38.51-89.17-87.06c0-48.55,39.57-86.55,89.7-86.55
			C3003.17-5639.33,3042.21-5601.33,3042.21-5552.78z M2886.54-5552.78c0,38.53,29.02,69.13,67.55,69.13
			c37.46,0.53,65.97-30.6,65.97-68.59c0-38.53-28.51-69.68-67.02-69.68C2915.56-5621.93,2886.54-5590.78,2886.54-5552.78z
			 M2939.84-5507.94h-20.06v-86.53c7.93-1.07,19.02-2.64,33.26-2.64c16.35,0,23.75,2.64,29.55,6.87c5.27,3.69,8.96,10.02,8.96,18.47
			c0,10.55-7.91,17.4-17.93,20.58v1.05c8.44,2.64,12.67,9.51,15.31,21.11c2.62,13.2,4.75,17.95,6.33,21.11h-21.11
			c-2.64-3.16-4.22-10.53-6.87-21.11c-1.58-8.96-6.87-13.18-17.95-13.18h-9.49V-5507.94z M2940.38-5556.47h9.49
			c11.09,0,20.06-3.71,20.06-12.67c0-7.93-5.8-13.2-18.47-13.2c-5.29,0-8.98,0.53-11.09,1.05V-5556.47z"/>
	</g>
	<rect x="-3870" y="-7358.17" class="st12" width="7182" height="2211.17"/>
	<g>
		<g>
			<path d="M2693.94-7112.23c-523.22,285.85-674.66,873.82-674.66,873.82s-288.42,153.22-309.23,773.56h392.32
				c13.91-110.48,157.49-1171.2,596.66-1643.78L2693.94-7112.23z"/>
		</g>
		<g>
			<path d="M2038.63-6510.77c18.62,161.4-34.05,300.06-117.64,309.7c-83.59,9.64-166.44-113.39-185.05-274.79
				c-18.62-161.4,34.05-300.06,117.64-309.7C1937.16-6795.2,2020.01-6672.18,2038.63-6510.77"/>
		</g>
		<g>
			<path class="st13" d="M2847.71-7303.54c-0.01,0.01-0.01,0.01-0.01,0.02c-0.01,0.01-0.02,0.02-0.03,0.04
				c-31.98,32.05-67.05,135.73-90.65,216.2c-0.01,0.06-0.03,0.12-0.05,0.18c-8.93,29.46-17.94,62.22-26.7,98.5
				c-0.09,0.38-0.18,0.74-0.26,1.06c-0.42,1.71-0.64,2.62-0.64,2.62c-30.32-31.91-70.2-55.47-154.76-81.93l81.93-163.87
				l-227.59-127.45L2847.71-7303.54z"/>
		</g>
		<g>
			<path d="M3312-7066.85l-273.11-45.52l-27.31,182.07c0,0-145.66-63.73-282.21-54.62c0,0,0.22-0.91,0.64-2.62
				c0.08-0.32,0.17-0.68,0.26-1.06c2.94-11.9,12.83-51.16,26.7-98.5c0.02-0.06,0.04-0.12,0.05-0.18
				c23.6-80.48,58.67-184.15,90.65-216.2c0.01-0.02,0.02-0.03,0.03-0.04c0-0.01,0-0.01,0.01-0.02L3312-7066.85z"/>
		</g>
		<g>
			<polygon points="3036.37,-6668.67 3120.82,-7121.47 3012.48,-6681.91 			"/>
		</g>
		<g>
			<polygon points="2975.16,-6684.49 3120.82,-7121.47 3002.48,-6684.49 			"/>
		</g>
	</g>
	<g>
		<defs>
			<path id="SVGID_00000124150444292494539910000013869126076982865082_" d="M1439.26-7167.24
				c-172.53,0-312.39,139.86-312.39,312.38v1077.61c0,172.53,139.86,312.39,312.39,312.39h1077.61
				c172.53,0,312.39-139.86,312.39-312.39v-1077.61c0-172.53-139.86-312.38-312.39-312.38H1439.26z"/>
		</defs>
		<clipPath id="SVGID_00000142861955583902645540000001157318521201001348_">
			<use xlink:href="#SVGID_00000124150444292494539910000013869126076982865082_"  style="overflow:visible;"/>
		</clipPath>
		<g style="clip-path:url(#SVGID_00000142861955583902645540000001157318521201001348_);">
			<g>
				<g>
					<path class="st0" d="M2881.86-7305.5c0.6,6.06-0.81,12.12-3.64,17.58l-15.35-7.88l-15.15-7.67l-20.2-2.63l-19.59-2.62
						l-59.59-7.68l-145.85-19.19l-29.7,57.98l-7.88,15.35l-7.67,15.15l-143.43-80l-1.61-1.01c-14.35-8.08-21.01-25.25-15.96-40.81
						c4.85-14.14,17.98-23.64,32.72-23.64c1.42,0,3.03,0.2,4.44,0.4l2.02,0.2l183.63,24.04l150.3,19.6l82.42,10.71
						c0.4,0,0.81,0.2,1.21,0.2c1.42,0.2,2.63,0.4,3.84,0.81c2.22,0.61,4.45,1.42,6.47,2.43c7.88,4.04,13.94,11.11,16.97,19.6
						C2881.25-7311.56,2881.86-7308.52,2881.86-7305.5z"/>
					<path class="st0" d="M2862.87-7295.8l-15.15-7.67l-20.2-2.63l-19.59-2.62l-59.59-7.68l-145.85-19.19l-29.7,57.98l-7.88,15.35
						l-144.24-80.81c-0.4-0.2-0.81-0.4-1.21-0.81c-6.47-4.24-9.29-12.33-6.87-19.59c2.42-7.27,9.09-11.92,16.36-11.92h1.01
						c0.4,0,0.81,0,1.21,0.2l179.59,23.43l148.08,19.19l61.41,8.08l29.7,3.84c0.4,0,0.61,0.2,0.81,0.2c1.61,0.4,3.23,0.81,4.85,1.62
						c3.84,2.02,6.87,5.45,8.28,9.7C2865.5-7304.69,2865.09-7299.84,2862.87-7295.8z"/>
					<path class="st0" d="M2862.87-7295.8l-15.15-7.67l-20.2-2.63l-19.59-2.62l-59.59-7.68l-145.85-19.19l-29.7,57.98l-7.88,15.35
						l-144.24-80.81c-0.4-0.2-0.81-0.4-1.21-0.81c-6.47-4.24-9.29-12.33-6.87-19.59c2.42-7.27,9.09-11.92,16.36-11.92h1.01
						c0.4,0,0.81,0,1.21,0.2l179.59,23.43l148.08,19.19l61.41,8.08l29.7,3.84c0.4,0,0.61,0.2,0.81,0.2c1.61,0.4,3.23,0.81,4.85,1.62
						c3.84,2.02,6.87,5.45,8.28,9.7C2865.5-7304.69,2865.09-7299.84,2862.87-7295.8z"/>
					<polygon class="st0" points="2428.94,-7358.22 2602.47,-7335.6 2572.78,-7277.62 					"/>
				</g>
				<g>
					<path class="st0" d="M3033.78-6911.16l9.49-6.26c-2.22,6.06-6.46,11.31-11.71,15.15c-0.81,0.4-1.62,1.01-2.43,1.42
						c-0.4,0.2-0.61,0.4-1.01,0.61c-4.84,2.83-10.7,4.24-16.56,4.24h-1.21l22.02-14.34l1.21-0.81H3033.78z"/>
					<path class="st0" d="M2863.27-7334.18l102.63,52.32l-11.92,13.13l-12.12,13.33l-63.64-32.52l-15.35-7.88l-15.15-7.67
						l-20.2-2.63l-19.59-2.62c4.04-6.06,8.29-11.52,12.33-15.76c1.01-1.21,2.02-2.22,3.03-3.23c6.47-6.46,15.15-10.1,24.44-10.1
						c1.42,0,2.83,0,4.04,0.2c0.4,0,0.81,0.2,1.21,0.2c1.42,0.2,2.63,0.4,3.84,0.81C2859.03-7336,2861.26-7335.19,2863.27-7334.18z"
						/>
					<polygon class="st0" points="3113.57,-7099.84 3120.84,-7121.46 3114.98,-7099.64 					"/>
					<path class="st0" d="M3137.41-7117.01c0.4-1.42,0.61-2.83,0.61-4.24c0,1.01,0,2.02-0.2,3.03l-4.04,21.62l-3.24,16.97
						l-3.03-0.61l4.44-16.56L3137.41-7117.01z"/>
					<polygon class="st0" points="3148.93,-7093.99 3153.98,-7112.57 3150.54,-7093.78 					"/>
					<path class="st0" d="M3153.98-7112.57c0.4-1.42,0.61-2.83,0.8-4.44c0,0.61,0,1.21-0.2,1.82L3153.98-7112.57z"/>
					<path class="st0" d="M3344.68-7056.01c-4.65,13.94-17.78,23.43-32.73,23.43c-1.81,0-3.64,0-5.66-0.4l-67.27-11.31l21.41-13.74
						l21.42-13.94l8.89-5.66l16.57-10.71h0.2l16.57-10.91l3.43,1.82C3342.86-7089.74,3349.93-7072.37,3344.68-7056.01z"/>
					<path class="st0" d="M2881.86-7305.5l72.12,36.77l-12.12,13.33l-63.64-32.52l-15.35-7.88l-15.15-7.67l-20.2-2.63
						c2.63-3.63,5.45-6.87,8.08-9.49c3.23-3.43,7.67-5.05,12.12-5.05c1.01,0,2.02,0,3.03,0.2c1.61,0.4,3.23,0.81,4.85,1.62
						L2881.86-7305.5z"/>
					<polygon class="st0" points="3113.57,-7099.84 3120.84,-7121.46 3114.98,-7099.64 					"/>
					<path class="st0" d="M3137.41-7117.01c0.4-1.42,0.61-2.83,0.61-4.24c0,1.01,0,2.02-0.2,3.03l-4.04,21.62l-3.24,16.97
						l-3.03-0.61l4.44-16.56L3137.41-7117.01z"/>
					<polygon class="st0" points="3148.93,-7093.99 3153.98,-7112.57 3150.54,-7093.78 					"/>
					<path class="st0" d="M3153.98-7112.57c0.4-1.42,0.61-2.83,0.8-4.44c0,0.61,0,1.21-0.2,1.82L3153.98-7112.57z"/>
					<path class="st0" d="M3328.31-7061.46c-2.42,7.07-9.09,11.72-16.36,11.72c-0.8,0-1.81,0-2.83-0.2l-48.69-8.08l21.42-13.94
						l8.89-5.66l16.57-10.71h0.2l12.33,6.26C3327.3-7078.23,3330.94-7069.54,3328.31-7061.46z"/>
					<path class="st0" d="M2881.86-7305.5l72.12,36.77l-12.12,13.33l-63.64-32.52l-15.35-7.88l-15.15-7.67l-20.2-2.63
						c2.63-3.63,5.45-6.87,8.08-9.49c3.23-3.43,7.67-5.05,12.12-5.05c1.01,0,2.02,0,3.03,0.2c1.61,0.4,3.23,0.81,4.85,1.62
						L2881.86-7305.5z"/>
					<polygon class="st0" points="3113.57,-7099.84 3120.84,-7121.46 3114.98,-7099.64 					"/>
					<path class="st0" d="M3137.41-7117.01c0.4-1.42,0.61-2.83,0.61-4.24c0,1.01,0,2.02-0.2,3.03l-4.04,21.62l-3.24,16.97
						l-3.03-0.61l4.44-16.56L3137.41-7117.01z"/>
					<polygon class="st0" points="3148.93,-7093.99 3153.98,-7112.57 3150.54,-7093.78 					"/>
					<path class="st0" d="M3153.98-7112.57c0.4-1.42,0.61-2.83,0.8-4.44c0,0.61,0,1.21-0.2,1.82L3153.98-7112.57z"/>
					<path class="st0" d="M3328.31-7061.46c-2.42,7.07-9.09,11.72-16.36,11.72c-0.8,0-1.81,0-2.83-0.2l-48.69-8.08l21.42-13.94
						l8.89-5.66l16.57-10.71h0.2l12.33,6.26C3327.3-7078.23,3330.94-7069.54,3328.31-7061.46z"/>
					<polygon class="st0" points="3113.57,-7099.84 3120.84,-7121.46 3114.98,-7099.64 					"/>
					<path class="st0" d="M3137.41-7117.01c0.4-1.42,0.61-2.83,0.61-4.24c0,1.01,0,2.02-0.2,3.03l-4.04,21.62l-1.82-0.2
						L3137.41-7117.01z"/>
					<polygon class="st0" points="3148.93,-7093.99 3153.98,-7112.57 3150.54,-7093.78 					"/>
					<path class="st0" d="M3154.78-7117.01c0,0.61,0,1.21-0.2,1.82l-0.61,2.63C3154.38-7113.99,3154.58-7115.4,3154.78-7117.01z"/>
					<polygon class="st0" points="3311.95,-7066.92 3281.85,-7071.97 3290.74,-7077.62 					"/>
				</g>
				<g>
					<polygon class="st0" points="3114.98,-7099.64 3113.57,-7099.84 3120.84,-7121.46 					"/>
					<path class="st0" d="M3130.54-7079.64l-3.03-0.61l4.44-16.56l5.45-20.2c0.4-1.42,0.61-2.83,0.61-4.24c0,1.01,0,2.02-0.2,3.03
						l-4.04,21.62L3130.54-7079.64z"/>
					<path class="st0" d="M3139.84-7060.65l4.44,0.6l-16.36,87.88l-32.53,174.54l-25.25,135.35c-2.02,10.71-9.09,20-19.19,24.65
						c-4.65,2.22-9.49,3.43-14.54,3.43c-5.86,0-11.52-1.62-16.77-4.44l-20.81-11.51l-3.03-1.62c-6.47-3.64-11.52-9.09-14.34-15.56
						c-2.63-5.25-3.64-11.31-3.03-17.17c0-1.82,0.2-3.84,0.81-5.66l5.86-24.04l0.2-0.81l7.88-31.72l38.39-155.55l2.02-8.89h0.21
						l9.49-6.26h0.21v-0.2l11.11-7.07l0.81-0.61l14.95-9.7l5.45-3.44l12.33-8.08h0.2l3.43-2.42h0.2l16.16-10.5l5.25-3.44
						L3139.84-7060.65z"/>
					<polygon class="st0" points="3148.93,-7093.99 3153.98,-7112.57 3150.54,-7093.78 					"/>
					<path class="st0" d="M3154.78-7117.01c0,0.61,0,1.21-0.2,1.82l-0.61,2.63C3154.38-7113.99,3154.58-7115.4,3154.78-7117.01z"/>
					<path class="st0" d="M3091.96-6948.94l16.16-10.5l-9.7,51.92L3076-6787.93l-22.83,122.42c-1.01,5.45-4.45,10.1-9.5,12.32
						c-2.22,1.21-4.84,1.62-7.27,1.62c-2.83,0-5.86-0.61-8.29-2.02l-5.65-3.03l-18.39-10.3c-0.2-0.2-0.4-0.2-0.6-0.4
						c-5.86-3.44-8.89-10.3-7.88-17.17c0-0.4,0-1.01,0.2-1.62l17.38-70.5l39.59-160.4l0.2-0.6l1.61-7.07l0.81-0.61l14.95-9.7
						l5.45-3.44l12.33-8.08h0.2l3.43-2.42H3091.96z"/>
					<polygon class="st0" points="3113.57,-7099.84 3120.84,-7121.46 3114.98,-7099.64 					"/>
					<path class="st0" d="M3138.02-7121.26c0,1.01,0,2.02-0.2,3.03l-4.04,21.62l-3.24,16.97l-3.03-0.61l4.44-16.56l5.45-20.2
						C3137.81-7118.43,3138.02-7119.84,3138.02-7121.26z"/>
					<path class="st0" d="M3091.96-6948.94l16.16-10.5l-9.7,51.92L3076-6787.93l-22.83,122.42c-1.01,5.45-4.45,10.1-9.5,12.32
						c-2.22,1.21-4.84,1.62-7.27,1.62c-2.83,0-5.86-0.61-8.29-2.02l-5.65-3.03l-18.39-10.3c-0.2-0.2-0.4-0.2-0.6-0.4
						c-5.86-3.44-8.89-10.3-7.88-17.17c0-0.4,0-1.01,0.2-1.62l17.38-70.5l39.59-160.4l0.2-0.6l1.61-7.07l0.81-0.61l14.95-9.7
						l5.45-3.44l12.33-8.08h0.2l3.43-2.42H3091.96z"/>
					<polygon class="st0" points="3113.57,-7099.84 3120.84,-7121.46 3114.98,-7099.64 					"/>
					<path class="st0" d="M3138.02-7121.26c0,1.01,0,2.02-0.2,3.03l-4.04,21.62l-3.24,16.97l-3.03-0.61l4.44-16.56l5.45-20.2
						C3137.81-7118.43,3138.02-7119.84,3138.02-7121.26z"/>
					<polygon class="st0" points="3088.12,-6946.51 3081.65,-6910.96 3081.45,-6910.15 3056.81,-6778.44 3042.46,-6701.06 
						3042.26,-6700.46 3036.4,-6668.74 3033.57,-6670.16 3033.57,-6670.36 3018.42,-6678.64 3012.56,-6681.87 3033.37,-6766.72 
						3033.57,-6766.72 3075.79,-6938.43 					"/>
				</g>
				<g>
					<path class="st0" d="M3108.12-6959.44l5.25-3.44l-14.95,55.35l-33.94,125.25l-22.02,81.21l-0.2,0.61l-6.67,24.85
						c-0.4,1.82-1.01,3.44-2.02,5.25v0.2c-2.42,5.45-6.26,10.1-11.11,13.54c-5.66,4.04-12.53,6.46-20,6.46h-27.27
						c-11.11,0-21.42-5.25-27.88-14.34c-6.46-8.89-8.28-20.4-4.65-30.91l10.51-31.31l56.16-168.68l0.2-0.81
						c0.2,0.2,0.61,0.2,0.81,0.2l22.02-14.34l1.21-0.81h0.21l9.49-6.26h0.21v-0.2l11.11-7.07l0.81-0.61l14.95-9.7l5.45-3.44
						l12.33-8.08h0.2l3.43-2.42h0.2L3108.12-6959.44z"/>
					<polygon class="st0" points="3113.57,-7099.84 3120.84,-7121.46 3114.98,-7099.64 					"/>
					<path class="st0" d="M3138.02-7121.26c0,1.01,0,2.02-0.2,3.03l-4.04,21.62l-3.24,16.97l-3.03-0.61l4.44-16.56l5.45-20.2
						C3137.81-7118.43,3138.02-7119.84,3138.02-7121.26z"/>
					<path class="st0" d="M3088.32-6946.51l3.43-2.42l-10.1,37.98l-0.2,0.81l-37.57,138.18l-24.85,91.92
						c-0.2,0.4-0.2,1.01-0.61,1.42c-2.22,6.47-8.28,10.91-14.94,11.31h-28.29c-5.66,0-10.71-2.63-13.94-7.07s-4.24-10.3-2.43-15.56
						l15.76-47.47l54.54-163.43l3.24-9.49l1.21-0.81h0.21l9.49-6.26h0.21v-0.2l11.11-7.07l0.81-0.61l14.95-9.7l5.45-3.44l12.33-8.08
						H3088.32z"/>
					<polygon class="st0" points="3120.84,-7121.46 3114.98,-7099.64 3113.57,-7099.84 					"/>
					<path class="st0" d="M3088.32-6946.51l3.43-2.42l-10.1,37.98l-0.2,0.81l-37.57,138.18l-24.85,91.92
						c-0.2,0.4-0.2,1.01-0.61,1.42c-2.22,6.47-8.28,10.91-14.94,11.31h-28.29c-5.66,0-10.71-2.63-13.94-7.07s-4.24-10.3-2.43-15.56
						l15.76-47.47l54.54-163.43l3.24-9.49l1.21-0.81h0.21l9.49-6.26h0.21v-0.2l11.11-7.07l0.81-0.61l14.95-9.7l5.45-3.44l12.33-8.08
						H3088.32z"/>
					<polygon class="st0" points="3120.84,-7121.46 3114.98,-7099.64 3113.57,-7099.84 					"/>
					<polygon class="st0" points="3055.39,-6925.3 3070.34,-6935 3023.47,-6761.67 3023.27,-6761.67 3002.46,-6684.5 
						2975.19,-6684.5 2985.09,-6714.2 2985.29,-6715.01 2996.4,-6748.34 3052.77,-6917.02 3052.97,-6917.62 					"/>
					<polygon class="st0" points="3120.84,-7121.46 3114.98,-7099.64 3113.57,-7099.84 					"/>
				</g>
			</g>
			<path d="M2684.49-9181.21l-556.96,2603.98l-0.2,0.4c-18.99,33.73-35.76,66.06-50.5,96.56l168.08-2749.03l41.21-23.84l73.54-15.15
				L2684.49-9181.21z"/>
			<path d="M3413.36-8922.03l-794.33,1554.11l-8.28,16.16l-8.28,16.16l-29.7,57.98l-7.88,15.35l-7.67,15.15l-160.6,314.13
				c-76.16,74.34-139.6,153.73-191.91,230.9l209.08-625.04l5.66-16.77l10.51-31.52l5.45-16.57l565.64-1690.47l46.06-12.32
				l74.95,4.44L3413.36-8922.03z"/>
			<path d="M2652.37-6999.44c15.56,8.08,27.27,15.96,36.97,23.84l-171.51,189.89C2558.64-6862.68,2603.48-6934.8,2652.37-6999.44z"
				/>
			<polygon points="4050.32,-8483.25 2965.9,-7281.86 2953.98,-7268.73 2941.86,-7255.4 2878.22,-7287.92 2862.87,-7295.8 
				2847.72,-7303.47 2827.52,-7306.1 2807.92,-7308.73 2748.33,-7316.41 2758.83,-7332.57 2769.34,-7348.32 3693.56,-8744.66 
				3741.23,-8744.66 3812.54,-8721.02 			"/>
			<path d="M3009.53-6896.21c0.2,0.2,0.61,0.2,0.81,0.2l-1.01,0.61l-622.61,403.22c15.15-40,31.11-79.59,47.88-118.78l380.4-336.56
				c96.96,11.92,181.81,48.28,182.82,48.69C3001.66-6897.02,3005.49-6896.21,3009.53-6896.21z"/>
			<polygon points="3067.71,-7072.77 3068.32,-7072.57 3067.11,-7068.73 			"/>
			<polygon points="3114.98,-7099.64 3113.57,-7099.84 3120.84,-7121.46 			"/>
			<path d="M3130.54-7079.64l-3.03-0.61l4.44-16.56l5.45-20.2c0.4-1.42,0.61-2.83,0.61-4.24c0,1.01,0,2.02-0.2,3.03l-4.04,21.62
				L3130.54-7079.64z"/>
			<polygon points="3150.54,-7093.78 3148.93,-7093.99 3153.98,-7112.57 			"/>
			<path d="M3154.58-7115.2l-0.61,2.63c0.4-1.42,0.61-2.83,0.8-4.44C3154.78-7116.41,3154.78-7115.8,3154.58-7115.2z"/>
			<polygon points="3238.82,-7044.29 3127.92,-6972.17 3113.37,-6962.88 3139.84,-7060.65 3144.27,-7060.05 			"/>
			<polygon points="4551.92,-7894.37 3324.07,-7099.24 3109.93,-7208.33 4274.96,-8239.21 4321.02,-8226.89 4383.64,-8185.48 			"/>
			<path d="M4884.04-7195.8L2344.7-6374.2c6.47-19.8,13.33-39.39,20.4-59.19v-0.2l588.06-293.12l21.42-10.71l18.58-9.29l3.24-1.62
				l16.77-8.28l10.1-5.05h0.2l9.9-5.05h0.2l10.31-5.25l12.93-6.46l7.67-3.84l11.52-5.65l19.39-9.7l1610.47-803.01l41.21,23.84
				l49.9,56.16L4884.04-7195.8z"/>
			<path d="M5024.03-6771.37v336.36l-2704.58,138.38c4.24-13.94,8.69-27.68,13.33-41.61l2623.99-533.93l33.53,33.54L5024.03-6771.37
				z"/>
			<path d="M5049.28-5988.76l-87.06,324.84L2300.06-6233.4c3.43-11.72,7.07-23.64,10.51-35.35l2699.94,165.05l23.84,41.21
				L5049.28-5988.76z"/>
			<path d="M4875.76-5301.5l-4.44,75.15l-168.08,291.11L2282.48-6172.39c3.23-11.72,6.67-23.43,10.1-35.15l2570.85,860.18
				L4875.76-5301.5z"/>
			<path d="M4525.86-4654.85v47.48l-23.84,71.31l-237.77,237.77L2263.89-6103.91c3.43-13.53,7.07-27.07,10.91-40.81L4525.86-4654.85
				z"/>
			<path d="M4020.42-4073.45l-12.32,45.86l-41.41,62.83l-291.31,168.08L2240.46-6012.19c4.65-18.58,9.29-37.57,14.34-56.77
				L4020.42-4073.45z"/>
			<path d="M3381.64-3642.55l-23.63,41.01l-56.36,49.9l-324.84,87.07L2204.3-5852.4c7.07-33.74,14.75-68.69,23.23-104.85
				L3381.64-3642.55z"/>
			<path d="M2653.18-3391.85l-33.53,33.74l-67.27,33.54h-336.16l-107.87-2106.62c14.54-2.42,26.06-14.14,28.08-29.29
				c4.04-31.31,16.97-128.69,42.22-263.43L2653.18-3391.85z"/>
			<polygon points="2012.59,-5430.59 1884.71,-3338.11 1843.5,-3314.27 1769.97,-3299.12 1445.12,-3386.19 1882.29,-5430.59 			"/>
			<path d="M1709.96-5430.59h69.29l-650.69,1945.61l-46.06,12.32l-74.95-4.44l-291.31-168.28l962.81-1883.59
				c-1.42,20.4-2.43,41.41-3.24,63.03c-0.4,9.29,3.03,18.38,9.5,25.05C1691.78-5434.22,1700.87-5430.59,1709.96-5430.59z"/>
			<path d="M79.3-4084.16l1687.43-1869.45c-23.63,59.8-44.85,130.1-61.01,212.32L436.06-3822.75h-47.68l-71.31-23.64L79.3-4084.16z"
				/>
			<path d="M1890.37-6168.35c-21.82,26.47-45.25,59.19-68.28,99.19l-0.4,0.6L-145.35-4328.19l-46.06-12.33l-62.62-41.41
				l-168.28-291.1l2309.65-1495.93h0.2C1888.55-6168.55,1889.36-6168.35,1890.37-6168.35z"/>
			<path d="M1856.42-6179.87L-576.25-4966.76l-41.21-23.84l-49.9-56.16l-87.07-324.84l2574.49-832.91
				C1831.78-6194.21,1843.9-6185.92,1856.42-6179.87z"/>
			<path d="M1796.03-6228.95l-2623.18,533.72l-33.54-33.53l-33.74-67.27v-336.35l2661.96-136.16
				C1776.23-6254,1785.72-6240.67,1796.03-6228.95z"/>
			<path d="M1727.34-6355.82c6.26,18.59,13.33,36.36,21.21,52.73l-2629.44-160.6l-23.84-41.21l-14.95-73.74l86.87-324.84
				L1727.34-6355.82z"/>
			<path d="M1714.41-6400.87l-2448.23-819.17l-12.33-45.86l4.44-75.15l168.08-291.1l2275.91,1163.21
				C1705.12-6445.31,1709.16-6422.69,1714.41-6400.87z"/>
			<path d="M1702.49-6610.76v0.2c-3.64,26.87-5.05,55.15-4.44,84.24l-2094.3-1386.23v-47.47l23.84-71.31l237.77-237.77
				L1702.49-6610.76z"/>
			<path d="M1756.23-6760.05c-12.52,16.77-23.03,36.97-31.92,60.2c-2.83,7.48-5.45,14.95-7.48,22.83L109.2-8493.95l12.32-45.86
				l41.41-62.83l291.31-168.08L1756.23-6760.05z"/>
			<path d="M1892.39-6816.62c-9.9-2.63-19.6-3.84-29.5-3.84c-4.44,0-8.89,0.2-13.33,0.81c-15.76,1.82-30.71,6.67-44.64,14.75
				L747.97-8924.85l23.63-41.01l56.36-49.9l324.84-87.07L1892.39-6816.62z"/>
			<path d="M2046.73-6633.59c-12.73-36.97-28.48-69.69-47.68-97.98c-10.7-15.76-22.02-29.49-33.94-41.21l-488.88-2402.78
				l33.74-33.74l67.27-33.53h336.15L2046.73-6633.59z"/>
		</g>
	</g>
</g>
</svg>
